<?xml version="1.0" encoding="UTF-8"?>
<svg id="_图层_1" data-name="图层_1" xmlns="http://www.w3.org/2000/svg" xmlns:xlink="http://www.w3.org/1999/xlink" viewBox="0 0 1000 200">
  <defs>
    <clipPath id="clippath">
      <rect width="1000" height="200" style="fill: none;"/>
    </clipPath>
    <linearGradient id="_未命名的渐变" data-name="未命名的渐变" x1="1268.019" y1="-582.543" x2="505.925" y2="-917.648" gradientTransform="translate(0 202) scale(1 -1)" gradientUnits="userSpaceOnUse">
      <stop offset="0" stop-color="#fff" stop-opacity="0"/>
      <stop offset="1" stop-color="#fff"/>
    </linearGradient>
    <linearGradient id="_未命名的渐变_2" data-name="未命名的渐变 2" x1="716.047" y1="650.07" x2="191.22" y2="110.927" gradientTransform="translate(0 202) scale(1 -1)" gradientUnits="userSpaceOnUse">
      <stop offset="0" stop-color="#fff"/>
      <stop offset="1" stop-color="#fff" stop-opacity="0"/>
    </linearGradient>
  </defs>
  <g style="clip-path: url(#clippath);">
    <g>
      <rect width="1000" height="200" style="fill: #980200;"/>
      <rect x="-11" y="-986.927" width="1232.53" height="1233.24" style="fill: none; isolation: isolate; opacity: .9;"/>
      <path d="M1882.15,907.069c0-493.751-399.71-894.011-892.778-894.011-493.066,0-892.78,400.26-892.78,894.011,0,493.751,399.714,894.011,892.78,894.011s892.778-400.26,892.778-894.011Z" style="fill: none; stroke: url(#_未命名的渐变); stroke-width: 3.697px;"/>
      <path d="M672.065-107.938c0-158.571-128.547-287.119-287.119-287.119S97.827-266.509,97.827-107.938c0,158.572,128.548,287.119,287.119,287.119S672.065,50.633,672.065-107.938Z" style="fill: none; stroke: url(#_未命名的渐变_2); stroke-width: 3.697px;"/>
    </g>
    <g>
      <rect x="31.036" y="52.868" width="604.149" height="65.024" style="fill: none;"/>
      <path d="M34.871,60.525h10.2l11.641,25.293v-25.293h7.588v34.692h-10.2l-11.695-25.342v25.342h-7.534v-34.692Z" style="fill: #fff;"/>
      <path d="M94.029,80.374v9.546c0,1.123.027,2.1.082,2.93.054.83.145,1.62.272,2.368h-7.915l-.326-3.345c-1.125,1.302-2.398,2.279-3.821,2.93-1.424.651-2.997.977-4.719.977-2.502,0-4.52-.732-6.052-2.197s-2.298-3.385-2.298-5.762c0-2.881,1.179-5.094,3.536-6.641,2.357-1.546,5.748-2.319,10.172-2.319h2.829v-.732c0-1.383-.472-2.429-1.415-3.137s-2.33-1.062-4.161-1.062c-1.306,0-2.607.204-3.903.61-1.296.407-2.498,1.001-3.604,1.782l-.436-5.762c1.777-.586,3.495-1.029,5.154-1.331,1.659-.301,3.259-.452,4.801-.452,4.388,0,7.452.822,9.193,2.466,1.741,1.644,2.611,4.688,2.611,9.131ZM85.788,83.059c-.345-.032-.703-.057-1.075-.073-.372-.016-.848-.024-1.428-.024-2.013,0-3.536.35-4.569,1.05-1.034.7-1.55,1.717-1.55,3.052,0,1.074.335,1.917,1.006,2.527.67.61,1.595.916,2.774.916,1.649,0,2.869-.484,3.658-1.453.789-.968,1.183-2.478,1.183-4.529v-1.465Z" style="fill: #fff;"/>
      <path d="M110.13,61.721v7.593h5.521v5.347h-5.521v10.815c0,1.904.235,3.154.707,3.748.471.594,1.314.891,2.53.891.326,0,.707-.032,1.142-.098.435-.065.961-.163,1.578-.293v5.444c-1.016.179-1.977.313-2.883.403-.907.089-1.759.134-2.557.134-3.282,0-5.589-.655-6.922-1.965-1.333-1.31-1.999-3.918-1.999-7.825v-11.255h-4.733v-5.347h4.733v-5.249l8.404-2.344Z" style="fill: #fff;"/>
      <path d="M120.275,58.157h8.404v6.763h-8.404v-6.763ZM120.275,69.314h8.404v25.903h-8.404v-25.903Z" style="fill: #fff;"/>
      <path d="M132.297,69.314h9.084l5.168,18.945,5.358-18.945h8.35l-8.894,25.903h-10.2l-8.867-25.903Z" style="fill: #fff;"/>
      <path d="M170.919,84.329c.218,2.051.911,3.585,2.081,4.602,1.169,1.018,2.815,1.526,4.937,1.526,1.251,0,2.502-.163,3.753-.488,1.251-.325,2.53-.822,3.835-1.489l.272,5.542c-1.433.57-2.919,1.005-4.46,1.306-1.542.301-3.064.452-4.569.452-4.533,0-8.051-1.167-10.553-3.503-2.502-2.335-3.753-5.619-3.753-9.851,0-4.085,1.138-7.381,3.414-9.888,2.275-2.506,5.253-3.76,8.935-3.76,3.935,0,6.99,1.205,9.166,3.613,2.176,2.409,3.264,5.819,3.264,10.229,0,.456-.005.798-.014,1.025-.009.228-.023.448-.041.659l-16.265.024ZM179.378,80.129c0-.26.009-.517.027-.769.018-.252.027-.386.027-.403,0-1.595-.354-2.832-1.061-3.711-.708-.879-1.705-1.318-2.992-1.318-1.451,0-2.548.497-3.291,1.489-.744.993-1.188,2.563-1.333,4.712h8.622Z" style="fill: #fff;"/>
      <path d="M207.692,60.525h9.656c2.611,0,4.665.118,6.16.354,1.496.236,2.743.615,3.74,1.135,1.813.944,3.187,2.23,4.121,3.857.934,1.628,1.4,3.54,1.4,5.737,0,3.63-1.179,6.356-3.536,8.179-2.357,1.823-5.875,2.734-10.553,2.734h-2.122v12.695h-8.867v-34.692ZM216.559,66.311v10.352h2.067c1.976,0,3.386-.403,4.229-1.208.843-.806,1.265-2.152,1.265-4.041,0-1.839-.426-3.149-1.278-3.931-.853-.781-2.33-1.172-4.434-1.172h-1.85Z" style="fill: #fff;"/>
      <path d="M258.499,80.374v9.546c0,1.123.027,2.1.082,2.93.054.83.145,1.62.272,2.368h-7.915l-.326-3.345c-1.125,1.302-2.398,2.279-3.821,2.93-1.424.651-2.997.977-4.719.977-2.502,0-4.52-.732-6.052-2.197s-2.298-3.385-2.298-5.762c0-2.881,1.179-5.094,3.536-6.641,2.357-1.546,5.748-2.319,10.172-2.319h2.829v-.732c0-1.383-.472-2.429-1.415-3.137s-2.33-1.062-4.161-1.062c-1.306,0-2.607.204-3.903.61-1.296.407-2.498,1.001-3.604,1.782l-.436-5.762c1.777-.586,3.495-1.029,5.154-1.331,1.659-.301,3.259-.452,4.801-.452,4.388,0,7.452.822,9.193,2.466,1.741,1.644,2.611,4.688,2.611,9.131ZM250.258,83.059c-.345-.032-.703-.057-1.075-.073-.372-.016-.848-.024-1.428-.024-2.013,0-3.536.35-4.569,1.05-1.034.7-1.55,1.717-1.55,3.052,0,1.074.335,1.917,1.006,2.527.67.61,1.595.916,2.774.916,1.649,0,2.869-.484,3.658-1.453.789-.968,1.183-2.478,1.183-4.529v-1.465Z" style="fill: #fff;"/>
      <path d="M281.618,68.875v6.934c-.054,0-.163-.016-.326-.049-.816-.163-1.378-.244-1.687-.244-2.104,0-3.64.574-4.61,1.721-.97,1.147-1.455,2.991-1.455,5.53v12.451h-8.459v-20.288c0-1.497-.023-2.637-.068-3.418-.045-.781-.114-1.514-.204-2.197h7.725c.018.065.027.155.027.269.145,1.562.218,2.71.218,3.442v.781c.616-1.546,1.595-2.771,2.938-3.674,1.342-.903,2.829-1.355,4.46-1.355.308,0,.743.024,1.306.073.054.017.1.024.136.024Z" style="fill: #fff;"/>
      <path d="M307.674,80.374v9.546c0,1.123.027,2.1.082,2.93.054.83.145,1.62.272,2.368h-7.915l-.326-3.345c-1.125,1.302-2.398,2.279-3.821,2.93-1.424.651-2.997.977-4.719.977-2.502,0-4.52-.732-6.052-2.197s-2.298-3.385-2.298-5.762c0-2.881,1.179-5.094,3.536-6.641,2.357-1.546,5.748-2.319,10.172-2.319h2.829v-.732c0-1.383-.472-2.429-1.415-3.137s-2.33-1.062-4.161-1.062c-1.306,0-2.607.204-3.903.61-1.296.407-2.498,1.001-3.604,1.782l-.436-5.762c1.777-.586,3.495-1.029,5.154-1.331,1.659-.301,3.259-.452,4.801-.452,4.388,0,7.452.822,9.193,2.466,1.741,1.644,2.611,4.688,2.611,9.131ZM299.433,83.059c-.345-.032-.703-.057-1.075-.073-.372-.016-.848-.024-1.428-.024-2.013,0-3.536.35-4.569,1.05-1.034.7-1.55,1.717-1.55,3.052,0,1.074.335,1.917,1.006,2.527.67.61,1.595.916,2.774.916,1.649,0,2.869-.484,3.658-1.453.789-.968,1.183-2.478,1.183-4.529v-1.465Z" style="fill: #fff;"/>
      <path d="M314.256,57.766h8.404v37.451h-8.404v-37.451Z" style="fill: #fff;"/>
      <path d="M329.46,57.766h8.404v37.451h-8.404v-37.451Z" style="fill: #fff;"/>
      <path d="M351.627,84.329c.218,2.051.911,3.585,2.081,4.602,1.169,1.018,2.815,1.526,4.937,1.526,1.251,0,2.502-.163,3.753-.488,1.251-.325,2.53-.822,3.835-1.489l.272,5.542c-1.433.57-2.919,1.005-4.46,1.306-1.542.301-3.064.452-4.569.452-4.533,0-8.051-1.167-10.553-3.503-2.502-2.335-3.753-5.619-3.753-9.851,0-4.085,1.138-7.381,3.414-9.888,2.275-2.506,5.253-3.76,8.935-3.76,3.935,0,6.99,1.205,9.166,3.613,2.176,2.409,3.264,5.819,3.264,10.229,0,.456-.005.798-.014,1.025-.009.228-.023.448-.041.659l-16.265.024ZM360.086,80.129c0-.26.009-.517.027-.769.018-.252.027-.386.027-.403,0-1.595-.354-2.832-1.061-3.711-.708-.879-1.705-1.318-2.992-1.318-1.451,0-2.548.497-3.291,1.489-.744.993-1.188,2.563-1.333,4.712h8.622Z" style="fill: #fff;"/>
      <path d="M373.305,57.766h8.404v37.451h-8.404v-37.451Z" style="fill: #fff;"/>
      <path d="M403.604,60.525h9.139c.472,0,.952-.008,1.442-.024.489-.016.752-.024.789-.024,4.914,0,8.49.745,10.73,2.234,2.239,1.489,3.359,3.862,3.359,7.117,0,2.132-.617,3.89-1.85,5.273-1.233,1.384-3.028,2.336-5.385,2.856,1.16.261,2.081.749,2.761,1.465.68.716,1.374,2.067,2.081,4.053l4.243,11.743h-9.139l-3.074-9.839c-.544-1.79-1.147-2.966-1.809-3.528-.662-.562-1.637-.842-2.924-.842h-1.659v14.209h-8.704v-34.692ZM412.308,66.311v8.911h1.877c2.212,0,3.798-.342,4.76-1.025.961-.684,1.441-1.79,1.441-3.32,0-1.676-.44-2.856-1.319-3.54s-2.461-1.025-4.746-1.025h-2.013Z" style="fill: #fff;"/>
      <path d="M441.709,84.329c.218,2.051.911,3.585,2.081,4.602,1.169,1.018,2.815,1.526,4.937,1.526,1.251,0,2.502-.163,3.753-.488,1.251-.325,2.53-.822,3.835-1.489l.272,5.542c-1.433.57-2.919,1.005-4.46,1.306-1.542.301-3.064.452-4.569.452-4.533,0-8.051-1.167-10.553-3.503-2.502-2.335-3.753-5.619-3.753-9.851,0-4.085,1.138-7.381,3.414-9.888,2.275-2.506,5.253-3.76,8.935-3.76,3.935,0,6.99,1.205,9.166,3.613,2.176,2.409,3.264,5.819,3.264,10.229,0,.456-.005.798-.014,1.025-.009.228-.023.448-.041.659l-16.265.024ZM450.168,80.129c0-.26.009-.517.027-.769.018-.252.027-.386.027-.403,0-1.595-.354-2.832-1.061-3.711-.708-.879-1.705-1.318-2.992-1.318-1.451,0-2.548.497-3.291,1.489-.744.993-1.188,2.563-1.333,4.712h8.622Z" style="fill: #fff;"/>
      <path d="M485.935,80.374v9.546c0,1.123.027,2.1.082,2.93.054.83.145,1.62.272,2.368h-7.915l-.326-3.345c-1.125,1.302-2.398,2.279-3.821,2.93-1.424.651-2.997.977-4.719.977-2.502,0-4.52-.732-6.052-2.197s-2.298-3.385-2.298-5.762c0-2.881,1.179-5.094,3.536-6.641,2.357-1.546,5.748-2.319,10.172-2.319h2.829v-.732c0-1.383-.472-2.429-1.415-3.137s-2.33-1.062-4.161-1.062c-1.306,0-2.607.204-3.903.61-1.296.407-2.498,1.001-3.604,1.782l-.436-5.762c1.777-.586,3.495-1.029,5.154-1.331,1.659-.301,3.259-.452,4.801-.452,4.388,0,7.452.822,9.193,2.466,1.741,1.644,2.611,4.688,2.611,9.131ZM477.693,83.059c-.345-.032-.703-.057-1.075-.073-.372-.016-.848-.024-1.428-.024-2.013,0-3.536.35-4.569,1.05-1.034.7-1.55,1.717-1.55,3.052,0,1.074.335,1.917,1.006,2.527.67.61,1.595.916,2.774.916,1.649,0,2.869-.484,3.658-1.453.789-.968,1.183-2.478,1.183-4.529v-1.465Z" style="fill: #fff;"/>
      <path d="M509.461,69.875l-.135,5.64c-1.088-.521-2.162-.907-3.225-1.16-1.061-.252-2.117-.378-3.168-.378-1.287,0-2.258.204-2.91.61-.653.407-.979,1.018-.979,1.831,0,.993,1.37,1.978,4.106,2.954,3.428,1.221,5.604,2.38,6.529,3.479.924,1.099,1.387,2.641,1.387,4.626,0,2.653-1.02,4.708-3.061,6.165-2.039,1.457-4.936,2.185-8.689,2.185-1.161,0-2.403-.102-3.727-.305-1.324-.204-2.702-.508-4.134-.916l.055-6.128c1.251.684,2.539,1.213,3.862,1.587,1.323.375,2.62.562,3.889.562,1.324,0,2.357-.232,3.102-.696.742-.464,1.115-1.103,1.115-1.917,0-1.009-1.316-1.969-3.945-2.881-.526-.179-.934-.317-1.224-.415-2.666-.96-4.52-1.99-5.562-3.088-1.043-1.099-1.564-2.519-1.564-4.26,0-2.686.947-4.781,2.842-6.287,1.895-1.505,4.529-2.258,7.902-2.258,1.232,0,2.484.085,3.754.256,1.268.171,2.529.436,3.779.793Z" style="fill: #fff;"/>
      <path d="M528.229,68.777c4.297,0,7.593,1.164,9.887,3.491,2.293,2.328,3.44,5.664,3.44,10.01,0,4.313-1.156,7.642-3.468,9.985s-5.599,3.516-9.859,3.516-7.521-1.176-9.833-3.528c-2.312-2.352-3.468-5.676-3.468-9.973,0-4.329,1.151-7.662,3.454-9.998,2.303-2.335,5.585-3.503,9.847-3.503ZM528.229,74.221c-1.396,0-2.48.696-3.251,2.087s-1.155,3.381-1.155,5.969c0,2.572.385,4.553,1.155,5.945s1.854,2.087,3.251,2.087c1.414,0,2.502-.688,3.264-2.063.762-1.375,1.143-3.365,1.143-5.969,0-2.62-.377-4.618-1.129-5.994-.753-1.375-1.846-2.063-3.277-2.063Z" style="fill: #fff;"/>
      <path d="M570.902,77.517v17.7h-8.485v-15.991c0-1.416-.259-2.454-.775-3.113s-1.328-.989-2.435-.989c-1.251,0-2.208.456-2.869,1.367-.662.912-.993,2.238-.993,3.979v14.746h-8.459v-20.288c0-1.497-.022-2.637-.067-3.418-.046-.781-.113-1.514-.204-2.197h7.725c.108.781.186,1.494.231,2.136.045.643.067,1.25.067,1.819.653-1.399,1.7-2.498,3.142-3.296,1.441-.797,3.087-1.196,4.937-1.196,2.666,0,4.696.741,6.093,2.222,1.396,1.481,2.094,3.654,2.094,6.519Z" style="fill: #fff;"/>
      <path d="M584.365,84.329c.218,2.051.911,3.585,2.081,4.602,1.17,1.018,2.815,1.526,4.937,1.526,1.251,0,2.502-.163,3.754-.488,1.251-.325,2.529-.822,3.835-1.489l.271,5.542c-1.433.57-2.919,1.005-4.46,1.306-1.542.301-3.064.452-4.569.452-4.534,0-8.052-1.167-10.554-3.503-2.502-2.335-3.753-5.619-3.753-9.851,0-4.085,1.138-7.381,3.413-9.888,2.275-2.506,5.254-3.76,8.935-3.76,3.935,0,6.99,1.205,9.166,3.613,2.176,2.409,3.264,5.819,3.264,10.229,0,.456-.004.798-.014,1.025-.009.228-.022.448-.04.659l-16.266.024ZM592.824,80.129c0-.26.009-.517.027-.769.018-.252.027-.386.027-.403,0-1.595-.354-2.832-1.061-3.711s-1.705-1.318-2.992-1.318c-1.451,0-2.548.497-3.291,1.489-.744.993-1.188,2.563-1.333,4.712h8.622Z" style="fill: #fff;"/>
      <path d="M622.58,68.875v6.934c-.055,0-.163-.016-.326-.049-.816-.163-1.378-.244-1.687-.244-2.104,0-3.641.574-4.61,1.721s-1.455,2.991-1.455,5.53v12.451h-8.459v-20.288c0-1.497-.022-2.637-.067-3.418-.046-.781-.113-1.514-.204-2.197h7.725c.018.065.027.155.027.269.145,1.562.217,2.71.217,3.442v.781c.616-1.546,1.596-2.771,2.938-3.674s2.829-1.355,4.461-1.355c.309,0,.743.024,1.306.073.055.017.1.024.136.024Z" style="fill: #fff;"/>
    </g>
  </g>
  <g>
    <path d="M917.037,67.978c-.605.884-1.309,1.701-2.112,2.452-.117.216-.208.443-.272.681-.152.165-.311.165-.477,0-.113.136-.227.272-.341.409-.045-.045-.091-.091-.136-.136-.091.182-.182.363-.272.545-.409.357-.795.743-1.158,1.158.156.284.065.488-.272.613.028.08.074.148.136.204-.793.654-1.406,1.449-1.839,2.384-.056.062-.125.108-.204.136-.477-.374-.772-.238-.885.409-.576.492-.939,1.127-1.09,1.907-.318.227-.636.454-.954.681-.067.143-.044.279.068.409-.154.15-.268.105-.341-.136-.229.3-.502.391-.817.272-.337.854-.813,1.626-1.43,2.316-.126-.155-.24-.155-.341,0-.235.302-.439.62-.613.954-.136.045-.227.136-.272.272h.272c.008.074.054.119.136.136,1.264-.255,2.49-.618,3.678-1.09-.173-.107-.309-.244-.409-.409.168-.03.304-.121.409-.272.18.241.384.286.613.136.092.298.251.344.477.136.334.13.606.334.817.613.409.045.817.091,1.226.136-.272.045-.545.091-.817.136.469.016.878.175,1.226.477-.315.383-.27.746.136,1.09-.156.865-.406,1.682-.749,2.452-.045-.091-.091-.182-.136-.272-.553.551-1.189,1.005-1.907,1.362-.056-.062-.125-.108-.204-.136-.178.35-.428.486-.749.409-.113.136-.227.272-.341.409-.08-.028-.148-.074-.204-.136-.461.174-.892.401-1.294.681-.318-.183-.545-.092-.681.272-.071-.281.065-.485.409-.613-.889.104-1.661.467-2.316,1.09-.98.365-1.979.66-2.997.885v.409c1.142.003,2.254-.178,3.338-.545.305.025.373.138.204.341-2.023.459-4.021.913-5.994,1.362-.318.409-.636.817-.954,1.226.081.063.172.086.272.068-.647.943-1.374,1.828-2.18,2.656-.129.084-.243.061-.341-.068-.275.298-.57.57-.885.817-.102-.25-.238-.477-.409-.681.182-.136.182-.272,0-.409.386-.132.704-.428.954-.885l-.204-.204c-.139.162-.298.298-.477.409-.094-.072-.162-.162-.204-.272-.295.546-.726.909-1.294,1.09.02.143-.002.28-.068.409l-.136-.136c-.49.218-.899.536-1.226.954-.045-.091-.091-.182-.136-.272-.917.94-1.848,1.848-2.793,2.725-.139-.068-.162-.159-.068-.272.712-.659,1.325-1.386,1.839-2.18.333-.215.491-.532.477-.954.136-.091.272-.182.409-.272-.105-.542.077-.997.545-1.362.066-.129.088-.265.068-.409.499.01.59-.126.272-.409-.08.028-.148.074-.204.136-.915,1.125-1.846,2.238-2.793,3.338-.172.042-.331.11-.477.204-.067-.176-.089-.358-.068-.545-.23.207-.479.388-.749.545-.171-.048-.217-.139-.136-.272.612-.991,1.338-1.899,2.18-2.725.128-.43.332-.816.613-1.158-.429.171-.838.421-1.226.749-.273.377-.569.74-.885,1.09-.071-.244-.025-.471.136-.681.399-.308.694-.694.885-1.158-.072-.094-.162-.162-.272-.204-2.414.535-4.253,1.852-5.517,3.951-.148.468-.262.945-.341,1.43.504,2.36.709,4.744.613,7.152-.478,2.23-.978,4.455-1.499,6.675-.091,1.044-.091,2.089,0,3.133.21,1.001.823,1.546,1.839,1.635.829-.21,1.646-.459,2.452-.749.301-.085.597-.063.885.068.833-.232,1.673-.436,2.52-.613.669-.815,1.1-1.746,1.294-2.793.068-1.134.091-2.27.068-3.406-.473-.051-.882.085-1.226.409-.08-.028-.148-.074-.204-.136-.351.376-.646.33-.885-.136-.409.164-.636.005-.681-.477.17-.21.147-.368-.068-.477-.412.187-.844.278-1.294.272.009-.259-.036-.509-.136-.749.151-.279.242-.574.272-.885-.511-.159-1.011-.25-1.499-.272-.35-.79-.622-1.608-.817-2.452.009-.301.1-.573.272-.817.885-.636,1.544-1.454,1.975-2.452.053.126.144.217.272.272.58-.263,1.125-.581,1.635-.954.272.091.545.182.817.272.851-.582,1.782-.786,2.793-.613.813-.256,1.63-.483,2.452-.681.324-.413.733-.731,1.226-.954l3.678-.204c.443.003.874.048,1.294.136.265-.083.515-.197.749-.341,1.067-.017,2.111-.176,3.133-.477.436.275.89.321,1.362.136l1.635,1.226c.248.662.316,1.343.204,2.043-.528.766-1.209.948-2.043.545-1.963,1.283-3.189,3.1-3.678,5.449-.091,1.998-.091,3.996,0,5.994.466-.948,1.216-1.379,2.248-1.294.383.237.791.396,1.226.477-.127.561-.104,1.106.068,1.635.772.681,1.544,1.362,2.316,2.043.479.487.57,1.032.272,1.635l-.749.749c-.858-.066-1.72-.066-2.588,0-1.181.537-2.407.923-3.678,1.158-.034,1.078-.238,2.122-.613,3.133-1.484,2.061-2.529,4.332-3.133,6.811-.258.485-.644.825-1.158,1.022-1.353.291-2.466-.095-3.338-1.158-1.16-2.638-2.046-5.362-2.656-8.174-.428.061-.837.197-1.226.409-.126.117-.217.253-.272.409-.299-.052-.527.039-.681.272.101-.018.192.005.272.068-.182.091-.182.182,0,.272-.157.238-.338.26-.545.068-.102.119-.17.256-.204.409-.199-.325-.494-.461-.885-.409-.805.214-1.622.419-2.452.613-.199.11-.244.224-.136.341.301-.083.596-.173.885-.272.063.081.086.172.068.272l-.409.409c-.303-.044-.553.047-.749.272-.189-.144-.393-.166-.613-.068-.371.23-.757.434-1.158.613-.034-.153-.102-.289-.204-.409-.165.105-.165.219,0,.341-.223.074-.404.005-.545-.204-.717.322-1.307.799-1.771,1.43-.169.062-.283-.006-.341-.204-.595.413-1.094.913-1.499,1.499l-.136-.136c-.289.351-.584.351-.885,0-.367.184-.685.434-.954.749-.427-.006-.79.13-1.09.409-.636.091-1.271.091-1.907,0-.574-.323-1.164-.618-1.771-.885-.493-.429-1.038-.792-1.635-1.09-.578-.657-1.055-1.383-1.43-2.18-.056-.685-.011-1.366.136-2.043,1.019-3.05,1.564-6.183,1.635-9.4.187-1.022.46-2.021.817-2.997.251-2.732.569-5.457.954-8.174.595-3.238,1.775-6.235,3.542-8.991.775-1.275,1.887-2.07,3.338-2.384,1.187-.067,2.368,0,3.542.204.464-.008.918-.076,1.362-.204,2.22-.849,4.377-1.825,6.471-2.929.076-.288.189-.561.341-.817-.169-.106-.305-.243-.409-.409-.924-.315-1.833-.656-2.725-1.022-.292-.351-.656-.6-1.09-.749-.696-.9-1.468-1.741-2.316-2.52-.013-.187.01-.391.068-.613-.477-.295-.863-.681-1.158-1.158.196-.03.377-.098.545-.204-.182-.182-.182-.363,0-.545-.202-.27-.429-.52-.681-.749.251-.183.478-.387.681-.613-.343-.456-.32-.91.068-1.362.295-.295.59-.59.885-.885.169-.062.283.006.341.204.303-.212.644-.348,1.022-.409.107-.101.198-.215.272-.341.409-.045.817-.091,1.226-.136-.203-.157-.181-.271.068-.341.499.501,1.112.796,1.839.885.767.696,1.629,1.263,2.588,1.703.272-.182.545-.182.817,0,.352-.308.716-.331,1.09-.068.414.368.777.777,1.09,1.226.242-.006.469-.097.681-.272.594-.646,1.161-1.304,1.703-1.975.58-1.236,1.239-2.44,1.975-3.61-.216-.012-.398-.034-.545-.068l.817-.817c.212-.651.53-1.241.954-1.771-.191-.215-.304-.442-.341-.681-.471.216-.948.261-1.43.136.045-.091.091-.182.136-.272.553.057,1.098-.056,1.635-.341-.733-.081-1.459-.036-2.18.136-.549.213-1.094.531-1.635.954-.345.046-.686.114-1.022.204-.136-.091-.272-.182-.409-.272-.378.141-.764.255-1.158.341.191.183.146.296-.136.341-.494-.194-.948-.126-1.362.204.264.124.4.328.409.613-.224-.029-.428.016-.613.136-.084-.129-.061-.243.068-.341-.16-.048-.319-.025-.477.068-.175-.061-.334-.152-.477-.272-2.568.484-5.11,1.188-7.629,2.112,1.733-.051,3.413-.392,5.04-1.022.253.092.298.228.136.409-1.662.489-3.342.921-5.04,1.294-.42.095-.693.345-.817.749-.08-.028-.148-.074-.204-.136-.473.385-.995.499-1.567.341-.091.182-.227.318-.409.409-1.924.553-3.649,1.461-5.177,2.725-.421.01-.83-.036-1.226-.136-.238.522-.601.931-1.09,1.226-.182.091-.363.091-.545,0-.297-.32-.615-.615-.954-.885-.477.432-1.022.75-1.635.954-.091-.045-.182-.091-.272-.136.22-.29.288-.608.204-.954-.304.351-.689.533-1.158.545v-.409c-.143.02-.28-.002-.409-.068.131-.193.244-.398.341-.613.996-.194.973-.512-.068-.954-.426.283-.88.442-1.362.477-.207-.496-.321-1.019-.341-1.567-.358-.222-.676-.494-.954-.817-.068-.751-.045-1.5.068-2.248-.062-.595-.153-1.185-.272-1.771.011-.636.261-1.158.749-1.567.291-.918.609-1.827.954-2.725.251-.502.569-.956.954-1.362-.026-.834.178-1.606.613-2.316-.222-.479-.131-.887.272-1.226-.482-.064-.89-.268-1.226-.613.385-.646.749-1.237,1.09-1.771-.46-.512-.528-1.08-.204-1.703.351-.634.646-1.293.885-1.975.269-.269.542-.542.817-.817.396-.135.805-.203,1.226-.204,1.226.194,2.453.262,3.678.204.551.506,1.142.96,1.771,1.362.808.27,1.625.452,2.452.545-.172-.247-.172-.497,0-.749.95.294,1.79.112,2.52-.545.047-.234.115-.461.204-.681-.185-.16-.162-.296.068-.409.551.506,1.142.96,1.771,1.362.101-.146.237-.237.409-.272,1.643.207,3.254.048,4.836-.477,1.115-.481,2.227-.958,3.338-1.43.113.023.227.045.341.068.085.493.357.811.817.954,1.551.216,3.004-.056,4.359-.817-1.772.075-1.795-.084-.068-.477.364.175.614.107.749-.204.176-.067.358-.089.545-.068v-.409c.41-.027.818-.073,1.226-.136.257.029.484.12.681.272.148-.121.148-.258,0-.409,1.552-.536,3.141-.967,4.768-1.294.454-.182.908-.363,1.362-.545,1.473-.171,2.949-.33,4.427-.477.586-.014,1.153.077,1.703.272.091-.023.182-.045.272-.068-.163-.089-.163-.157,0-.204.53.242,1.075.447,1.635.613.457.277.911.549,1.362.817.516.834,1.175,1.538,1.975,2.112,1.395,2.451,1.895,5.085,1.499,7.901-.382,1.21-.7,2.436-.954,3.678-.407.813-.815,1.631-1.226,2.452-.27.17-.519.352-.749.545ZM868.676,58.034c.373.29.51.653.409,1.09-.289-.306-.425-.669-.409-1.09ZM868.403,60.077c.101-.018.192.005.272.068-.147.13-.306.244-.477.341-.033-.175.036-.312.204-.409ZM912.814,70.158c-.097.331-.233.649-.409.954.045.091.091.182.136.272-.337.496-.7.973-1.09,1.43-.284.043-.557.111-.817.204-.053-.758.242-1.394.885-1.907.054.229.031.456-.068.681.032.195.123.263.272.204.014-.321.173-.616.477-.885.023-.451.228-.769.613-.954ZM909.272,74.517c.101-.018.192.005.272.068-.16.342-.387.569-.681.681.171-.237.308-.487.409-.749ZM910.362,75.335c-.053.229-.122.456-.204.681-.405-.148-.45-.375-.136-.681.105.15.218.15.341,0ZM903.686,83.236v.272h-.272c.045-.136.136-.227.272-.272ZM906.683,88.14c.143-.02.28.002.409.068-.306.142-.601.301-.885.477-.023-.045-.045-.091-.068-.136.191-.139.373-.275.545-.409ZM895.513,95.088c-.002.208-.093.276-.272.204.074-.098.165-.166.272-.204ZM888.02,96.586c-.079.306-.261.533-.545.681.079-.306.261-.533.545-.681ZM900.826,119.336c.14.085.276.199.409.341-.295.213-.522.19-.681-.068.101-.093.192-.184.272-.272ZM887.612,122.742c-.197.164-.424.232-.681.204.209-.246.436-.314.681-.204ZM883.116,123.968c.337.034.337.124,0,.272-.131-.064-.131-.155,0-.272Z" style="fill: #fff; fill-rule: evenodd; isolation: isolate; opacity: .981;"/>
    <path d="M883.116,54.628c.518.044.54.18.068.409-.066-.129-.088-.265-.068-.409Z" style="fill: #fff; fill-rule: evenodd; isolation: isolate; opacity: .421;"/>
    <path d="M917.037,67.978c.101-.018.192.005.272.068-.128.094-.218.072-.272-.068Z" style="fill: #fff; fill-rule: evenodd; isolation: isolate; opacity: .251;"/>
    <path d="M897.011,69.886c.557-.038.625.052.204.272-.14-.046-.208-.137-.204-.272Z" style="fill: #fff; fill-rule: evenodd; isolation: isolate; opacity: .51;"/>
    <path d="M895.377,71.384c.516-.067.607.046.272.341-.454.206-.908.274-1.362.204.375-.187.738-.369,1.09-.545Z" style="fill: #fff; fill-rule: evenodd; isolation: isolate; opacity: .555;"/>
    <path d="M889.519,71.793c.287-.041.559.005.817.136-.288.197-.605.334-.954.409-.045-.068-.091-.136-.136-.204.076-.138.166-.251.272-.341Z" style="fill: #fff; fill-rule: evenodd; isolation: isolate; opacity: .672;"/>
    <path d="M888.565,72.201c.342.098.342.234,0,.409-.145-.126-.145-.262,0-.409Z" style="fill: #fff; fill-rule: evenodd; isolation: isolate; opacity: .43;"/>
    <path d="M891.29,72.61c.201-.036.383.01.545.136-.091.045-.182.091-.272.136-.165-.034-.256-.125-.272-.272Z" style="fill: #fff; fill-rule: evenodd; isolation: isolate; opacity: .533;"/>
    <path d="M888.701,73.155c.079-.173.169-.173.272,0-.064.131-.155.131-.272,0Z" style="fill: #fff; fill-rule: evenodd; isolation: isolate; opacity: .356;"/>
    <path d="M887.067,73.7c.194.028.375.097.545.204-.267.115-.449.047-.545-.204Z" style="fill: #fff; fill-rule: evenodd; isolation: isolate; opacity: .554;"/>
    <path d="M894.559,77.923c.14.054.162.145.068.272-.063-.081-.086-.172-.068-.272Z" style="fill: #fff; fill-rule: evenodd; isolation: isolate; opacity: .22;"/>
    <path d="M907.092,82.146c-.174-.121-.174-.257,0-.409.08.1.08.236,0,.409Z" style="fill: #fff; fill-rule: evenodd; isolation: isolate; opacity: .251;"/>
    <path d="M904.095,82.963c.054-.14.145-.162.272-.068-.081.063-.172.086-.272.068Z" style="fill: #fff; fill-rule: evenodd; isolation: isolate; opacity: .314;"/>
    <path d="M903.686,83.236c.331.039.331.13,0,.272v-.272Z" style="fill: #fff; fill-rule: evenodd; isolation: isolate; opacity: .272;"/>
    <path d="M917.718,130.371c.117.383.026.746-.272,1.09-.126-.155-.24-.155-.341,0-.055.187-.123.368-.204.545.135.132.226.291.272.477-.135.608-.362,1.176-.681,1.703-.011.331.035.671.136,1.022-.27.082-.315.219-.136.409-.167.344-.394.639-.681.885.224.271.179.452-.136.545.037-.247.06-.52.068-.817.087-.2.2-.381.341-.545-.139-.364-.161-.727-.068-1.09-.314.169-.382.397-.204.681-.152.561-.379,1.083-.681,1.567.104.282.172.577.204.885.43.17.408.329-.068.477.241.073.287.186.136.341-.21.17-.414.17-.613,0-.067.176-.089.358-.068.545-.156.056-.292.146-.409.272-.097.315-.233.61-.409.885l.136.136c-.526.344-.957.776-1.294,1.294-.045-.091-.091-.182-.136-.272-.216.119-.42.256-.613.409.001-.128-.067-.219-.204-.272-.257.195-.552.286-.885.272-1.344.073-2.525-.313-3.542-1.158l.136-.136c-.333-.395-.697-.759-1.09-1.09.363-.091.363-.182,0-.272.182-.091.182-.182,0-.272.113-.125.249-.215.409-.272-.091-.045-.182-.091-.272-.136.637-.473,1.295-.45,1.975.068.404-.507.79-1.006,1.158-1.499.163-.693.436-1.352.817-1.975-.126-.053-.217-.144-.272-.272.162-.258.298-.531.409-.817-.182-.251-.159-.319.068-.204.032-.507.101-1.007.204-1.499.166-1.379.166-2.787,0-4.223.218-2.403.399-4.81.545-7.22-.222-3.719-.336-7.443-.341-11.171-.255-3.056-.437-6.098-.545-9.127-.135.398-.225.807-.272,1.226l-.409-2.452c-.133,1.444-.428,1.535-.885.272.155-1.026.291-2.048.409-3.065-.364-.93-.319-1.861.136-2.793-.017-1.345.21-2.661.681-3.951-.011-.711.125-1.414.409-2.112-.053-.138-.144-.206-.272-.204.304-.689.69-1.324,1.158-1.907,1.271-1.529,2.883-2.051,4.836-1.567,1.091.433,1.749,1.227,1.975,2.384.509-.521.577-.453.204.204.5.28,1.022.53,1.567.749.093.332.025.627-.204.885.146.233.327.437.545.613-.065.133-.156.247-.272.341.377.094.468.298.272.613.079.205.193.386.341.545.091.227.091.454,0,.681-1.549.596-2.594,1.686-3.133,3.269-.114.501-.227,1.001-.341,1.499.907,2.31,1.361,4.717,1.362,7.22-.143.02-.28-.002-.409-.068.168-.161.168-.32,0-.477-.045.341-.091.681-.136,1.022.117,2.392.117,4.776,0,7.152.091.318.182.636.272.954-.184.266-.275.561-.272.885.045,1.865.045,3.727,0,5.585-.286,1.305-.513,2.622-.681,3.951.011.341.102.659.272.954-.227.361-.295.747-.204,1.158.091-.182.182-.182.272,0,.347,1.465.188,2.873-.477,4.223.023.091.045.182.068.272.243-.319.379-.683.409-1.09.045.091.091.182.136.272.087.919.019,1.782-.204,2.588ZM910.089,97.812c.169.441.147.896-.068,1.362-.074-.459-.051-.913.068-1.362ZM917.582,124.922c.177.184.154.365-.068.545-.027-.18-.004-.361.068-.545ZM917.718,130.371c-.079.173-.169.173-.272,0,.064-.131.155-.131.272,0ZM916.764,132.414c.25.019.296.11.136.272-.109-.062-.154-.153-.136-.272ZM915.947,134.049c.341.001.363.092.068.272-.063-.081-.086-.172-.068-.272ZM914.448,136.91c.002-.208.093-.276.272-.204-.074.098-.165.166-.272.204ZM913.767,137.046c.175.165.175.346,0,.545-.108-.163-.108-.345,0-.545ZM915.13,137.863c-.001.298-.138.411-.409.341.119-.142.255-.256.409-.341ZM913.904,138.136c.04.19.086.395.136.613-.136.113-.272.227-.409.341.074.276.006.548-.204.817-.25.023-.5.045-.749.068.564-.516.973-1.129,1.226-1.839Z" style="fill: #fff; fill-rule: evenodd; isolation: isolate; opacity: .964;"/>
    <path d="M880.664,87.323c.14.054.162.145.068.272-.063-.081-.086-.172-.068-.272Z" style="fill: #fff; fill-rule: evenodd; isolation: isolate; opacity: .157;"/>
    <path d="M882.98,87.595c.107.039.198.107.272.204-.179.072-.27.004-.272-.204Z" style="fill: #fff; fill-rule: evenodd; isolation: isolate; opacity: .23;"/>
    <path d="M883.661,88.004c.329.026.465.208.409.545h-.545c-.009-.199.036-.38.136-.545Z" style="fill: #fff; fill-rule: evenodd; isolation: isolate; opacity: .591;"/>
    <path d="M909.408,88.14c.054-.14.145-.162.272-.068-.081.063-.172.086-.272.068Z" style="fill: #fff; fill-rule: evenodd; isolation: isolate; opacity: .502;"/>
    <path d="M879.847,88.685c.326.181.326.408,0,.681-.127-.217-.127-.444,0-.681Z" style="fill: #fff; fill-rule: evenodd; isolation: isolate; opacity: .345;"/>
    <path d="M907.637,88.685c.342.098.342.234,0,.409-.145-.126-.145-.262,0-.409Z" style="fill: #fff; fill-rule: evenodd; isolation: isolate; opacity: .296;"/>
    <path d="M881.481,89.23c.25.087.295.223.136.409-.121-.112-.166-.249-.136-.409Z" style="fill: #fff; fill-rule: evenodd; isolation: isolate; opacity: .226;"/>
    <path d="M906.82,89.23c.332.116.309.253-.068.409-.064-.147-.041-.283.068-.409Z" style="fill: #fff; fill-rule: evenodd; isolation: isolate; opacity: .387;"/>
    <path d="M882.844,89.366c.297-.029.524.084.681.341-.5.341-.999.681-1.499,1.022-.139-.068-.162-.159-.068-.272.379-.309.674-.673.885-1.09Z" style="fill: #fff; fill-rule: evenodd; isolation: isolate; opacity: .67;"/>
    <path d="M880.391,89.639c.418.063.486.245.204.545-.162-.145-.23-.327-.204-.545Z" style="fill: #fff; fill-rule: evenodd; isolation: isolate; opacity: .481;"/>
    <path d="M906.139,90.183c.079-.173.169-.173.272,0-.064.131-.155.131-.272,0Z" style="fill: #fff; fill-rule: evenodd; isolation: isolate; opacity: .209;"/>
    <path d="M905.73,90.183c.119-.018.21.028.272.136-.314.187-.405.142-.272-.136Z" style="fill: #fff; fill-rule: evenodd; isolation: isolate; opacity: .339;"/>
    <path d="M880.119,90.32c.25.019.296.11.136.272-.109-.062-.154-.153-.136-.272Z" style="fill: #fff; fill-rule: evenodd; isolation: isolate; opacity: .298;"/>
    <path d="M903.959,90.728c.054-.14.145-.162.272-.068-.081.063-.172.086-.272.068Z" style="fill: #fff; fill-rule: evenodd; isolation: isolate; opacity: .314;"/>
    <path d="M896.875,93.862c-.005-.171.063-.307.204-.409.08.204.012.34-.204.409Z" style="fill: #fff; fill-rule: evenodd; isolation: isolate; opacity: .204;"/>
    <path d="M889.246,97.54c-.101.018-.192-.005-.272-.068.094-.145.162-.304.204-.477.206.145.228.327.068.545Z" style="fill: #fff; fill-rule: evenodd; isolation: isolate; opacity: .178;"/>
    <path d="M892.243,96.995c.341.001.363.092.068.272-.063-.081-.086-.172-.068-.272Z" style="fill: #fff; fill-rule: evenodd; isolation: isolate; opacity: .146;"/>
    <path d="M892.788,97.676c.173.079.173.169,0,.272-.131-.064-.131-.155,0-.272Z" style="fill: #fff; fill-rule: evenodd; isolation: isolate; opacity: .125;"/>
    <path d="M887.067,97.812c.319.156.296.338-.068.545-.068-.045-.136-.091-.204-.136.094-.139.185-.275.272-.409Z" style="fill: #fff; fill-rule: evenodd; isolation: isolate; opacity: .411;"/>
    <path d="M887.339,98.357c.119-.018.21.028.272.136-.194.387-.466.569-.817.545.09-.315.271-.542.545-.681Z" style="fill: #fff; fill-rule: evenodd; isolation: isolate; opacity: .473;"/>
    <path d="M891.153,98.357c.354.194.332.375-.068.545-.068-.023-.136-.045-.204-.068.11-.152.201-.31.272-.477Z" style="fill: #fff; fill-rule: evenodd; isolation: isolate; opacity: .399;"/>
    <path d="M885.841,98.63c.337.034.337.124,0,.272-.131-.064-.131-.155,0-.272Z" style="fill: #fff; fill-rule: evenodd; isolation: isolate; opacity: .22;"/>
    <path d="M891.971,99.038c.341.001.363.092.068.272-.063-.081-.086-.172-.068-.272Z" style="fill: #fff; fill-rule: evenodd; isolation: isolate; opacity: .125;"/>
    <path d="M908.863,100.264c.175.209.175.436,0,.681-.075-.205-.075-.432,0-.681Z" style="fill: #fff; fill-rule: evenodd; isolation: isolate; opacity: .368;"/>
    <path d="M909.136,100.264c.146.102.169.239.068.409-.066-.129-.088-.265-.068-.409Z" style="fill: #fff; fill-rule: evenodd; isolation: isolate; opacity: .209;"/>
    <path d="M909.272,100.946c.14.054.162.145.068.272-.063-.081-.086-.172-.068-.272Z" style="fill: #fff; fill-rule: evenodd; isolation: isolate; opacity: .188;"/>
    <path d="M853.555,103.806c.119-.018.21.028.272.136-.167.152-.348.175-.545.068.125-.038.216-.106.272-.204Z" style="fill: #fff; fill-rule: evenodd; isolation: isolate; opacity: .418;"/>
    <path d="M852.465,104.351c.133-.216.337-.352.613-.409-.07.267-.274.403-.613.409Z" style="fill: #fff; fill-rule: evenodd; isolation: isolate; opacity: .196;"/>
    <path d="M855.462,103.943c.173.079.173.169,0,.272-.173.126-.354.149-.545.068.213-.083.395-.196.545-.341Z" style="fill: #fff; fill-rule: evenodd; isolation: isolate; opacity: .357;"/>
    <path d="M857.914,103.943c.485.057.462.193-.068.409-.064-.147-.041-.283.068-.409Z" style="fill: #fff; fill-rule: evenodd; isolation: isolate; opacity: .278;"/>
    <path d="M852.465,104.351c-.103.265-.284.379-.545.341.132-.202.314-.315.545-.341Z" style="fill: #fff; fill-rule: evenodd; isolation: isolate; opacity: .193;"/>
    <path d="M855.598,104.487c.478.089.433.225-.136.409-.08-.028-.148-.074-.204-.136-.087.372-.246.44-.477.204.264-.199.536-.358.817-.477Z" style="fill: #fff; fill-rule: evenodd; isolation: isolate; opacity: .352;"/>
    <path d="M847.833,104.624c.557-.038.625.052.204.272-.14-.046-.208-.137-.204-.272Z" style="fill: #fff; fill-rule: evenodd; isolation: isolate; opacity: .341;"/>
    <path d="M850.694,104.896c.964-.427,1.055-.29.272.409-.193-.069-.284-.205-.272-.409Z" style="fill: #fff; fill-rule: evenodd; isolation: isolate; opacity: .363;"/>
    <path d="M852.601,104.624c.101-.018.192.005.272.068-.182.091-.182.182,0,.272-.325.039-.416.175-.272.409-.389.037-.752.15-1.09.341-.15-.154-.105-.268.136-.341-.091-.045-.182-.091-.272-.136.191-.081.372-.058.545.068l.681-.681Z" style="fill: #fff; fill-rule: evenodd; isolation: isolate; opacity: .329;"/>
    <path d="M847.016,105.032c.177-.218.404-.286.681-.204-.208.137-.435.206-.681.204Z" style="fill: #fff; fill-rule: evenodd; isolation: isolate; opacity: .261;"/>
    <path d="M850.694,104.896c-.195.174-.286.401-.272.681.267.087.517.087.749,0,.066.129.088.265.068.409-.143-.02-.28.002-.409.068.431.252.862.229,1.294-.068.138.053.206.144.204.272.606-.321,1.196-.661,1.771-1.022.136-.091.272-.091.409,0-.441.391-.918.731-1.43,1.022-.062.169.006.283.204.341-.191.081-.372.058-.545-.068-.121.112-.166.249-.136.409,1.304-.33,2.485-.92,3.542-1.771l.136.136c-.788.6-1.606,1.167-2.452,1.703-.326.178-.326.315,0,.409-.145.274-.327.342-.545.204-.045-.182-.091-.182-.136,0-.091,0-.136.045-.136.136-.135-.023-.226.022-.272.136-.091,0-.136.045-.136.136-.136.045-.227.136-.272.272-.091,0-.136.045-.136.136-.091,0-.136.045-.136.136-.325.119-.597.323-.817.613.304.085.554.244.749.477.177-.08.336-.17.477-.272.135.023.226-.022.272-.136.621-.163,1.234-.345,1.839-.545.169.196.237.4.204.613-.078.164-.169.323-.272.477-.16-.185-.296-.162-.409.068.116.139.253.253.409.341l.817-.409c.183.191.296.146.341-.136.468-.029.944-.029,1.43,0,.848-.401,1.711-.765,2.588-1.09.255-.002.301.066.136.204-.727.273-1.409.613-2.043,1.022-.091,0-.136.045-.136.136-.209.16-.413.342-.613.545-.125-.157-.238-.134-.341.068l.136.136c-.338.3-.656.595-.954.885.83-.396,1.647-.827,2.452-1.294.264-.111.536-.179.817-.204-.02.143.002.28.068.409.204-.17.408-.17.613,0-.716.653-1.533,1.13-2.452,1.43l-.545.545c.182.091.363.091.545,0,.449-.24.903-.421,1.362-.545-.897.718-1.783,1.467-2.656,2.248-.094.113-.071.204.068.272.435-.425.935-.561,1.499-.409-.529.335-1.029.721-1.499,1.158.52.17.497.329-.068.477-.129-.055-.22-.146-.272-.272-.421.244-.852.471-1.294.681-.095.343-.277.433-.545.272-.139.048-.23.139-.272.272-1.301.801-2.527,1.709-3.678,2.725.234.068.461.113.681.136,1.148-.754,2.238-1.571,3.269-2.452.16-.03.296.016.409.136-.074.367-.256.73-.545,1.09-.378-.212-.696-.144-.954.204.062.056.108.125.136.204-.344.321-.707.616-1.09.885.146.175.328.22.545.136-.486.358-.986.586-1.499.681.143.234.053.37-.272.409.143.234.053.37-.272.409-.013.613-.331,1.067-.954,1.362.14.436.368.822.681,1.158-.028.08-.074.148-.136.204.371.262.644.603.817,1.022.172.117.354.208.545.272-.018.101.005.192.068.272.554.6,1.212,1.032,1.975,1.294-.091.045-.182.091-.272.136.724.635,1.542,1.112,2.452,1.43-.165.32-.075.57.272.749.454.091.908.182,1.362.272.656.4,1.337.74,2.043,1.022.126.257.307.462.545.613,1.25.546,2.476,1.137,3.678,1.771.363.091.727.091,1.09,0-.284-.108-.534-.267-.749-.477-.084-.129-.061-.243.068-.341.376-.08.739-.034,1.09.136,2.107,1.303,4.332,2.348,6.675,3.133.114.138.159.297.136.477-1.972-.574-3.879-1.323-5.722-2.248-.136-.091-.272-.091-.409,0l.136.136c3.175,1.749,6.49,3.066,9.945,3.951.233.188.415.415.545.681-.309.127-.581.309-.817.545.267.127.539.24.817.341v-.545c.348.075.666.211.954.409.045-.023.091-.045.136-.068-.384-.288-.361-.538.068-.749.799.205,1.593.432,2.384.681.091-.045.182-.091.272-.136.951.445,1.904.785,2.861,1.022.114.138.159.297.136.477-.585.025-1.13-.111-1.635-.409-.258.179-.485.156-.681-.068.11-.042.201-.11.272-.204-.296-.216-.614-.398-.954-.545-.114.273-.318.409-.613.409-.655-.186-1.313-.299-1.975-.341.976.421,1.952.852,2.929,1.294.212-.275.462-.32.749-.136-.167.106-.349.175-.545.204.835.46,1.698.869,2.588,1.226.182.091.182.182,0,.272.43.075.862.144,1.294.204.357-.289.653-.266.885.068.633.242,1.269.424,1.907.545-.636-.363-1.271-.727-1.907-1.09.179-.19.134-.326-.136-.409.363-.045.727-.091,1.09-.136-.894,0-1.757-.16-2.588-.477-.121-.112-.166-.249-.136-.409.637-.023,1.273,0,1.907.068,1.06.376,2.104.762,3.133,1.158.144-.025.28-.07.409-.136.633.143,1.246.325,1.839.545.196-.008.377-.053.545-.136.607.26,1.22.51,1.839.749l-.136.136c.347.09.688.067,1.022-.068l.613.204c-.089.219-.02.424.204.613.056-.062.125-.108.204-.136.192.178.419.292.681.341.681.091,1.362.091,2.043,0-.514-.191-.741-.577-.681-1.158-.218.026-.4-.043-.545-.204.432-.133.818-.065,1.158.204.143-.139.302-.161.477-.068-.062.056-.108.125-.136.204.154.104.313.195.477.272.145-.094.304-.162.477-.204-.21-.04-.392-.13-.545-.272.409-.091.817-.091,1.226,0-.114.138-.159.297-.136.477.224-.029.428.016.613.136.296-.378.364-.356.204.068,1.259.535,2.576.762,3.951.681.242-.196.514-.332.817-.409.534-.028,1.056-.096,1.567-.204.218.209.468.277.749.204l-.136-.136c.11-.042.201-.11.272-.204-.198-.184-.288-.411-.272-.681.403.087.811.155,1.226.204l-.136.136c.723.31,1.427.332,2.112.068.412.35.798.304,1.158-.136.15.152.309.152.477,0,.129.055.22.146.272.272.65-.415,1.354-.506,2.112-.272.407-.022.793-.113,1.158-.272.119.294.391.521.817.681.068-.023.136-.045.204-.068-.161-.184-.343-.343-.545-.477.692-.384,1.418-.52,2.18-.409.139-.344.298-.344.477,0,.36-.345.791-.481,1.294-.409v.681c-.363.059-.726.127-1.09.204.404.252.812.252,1.226,0,.155-.101.155-.215,0-.341.401-.139.809-.253,1.226-.341-.35-.19-.327-.349.068-.477.275.072.389.254.341.545.334.017.606.153.817.409.458.078.912.169,1.362.272.056-.104.079-.24.068-.409.102-.085.216-.153.341-.204.377-.008.74-.03,1.09-.068.456.451.932.497,1.43.136.067-.143.044-.279-.068-.409.956-.397,1.887-.351,2.793.136.19-.179.326-.134.409.136.157-.272.361-.317.613-.136-.148.219-.057.309.272.272.465-.071.919-.184,1.362-.341-.262-.049-.489-.163-.681-.341-.093-.284-.138-.557-.136-.817.79-.164,1.562-.391,2.316-.681.045.068.091.136.136.204-.185.213-.276.463-.272.749-.348-.02-.665-.088-.954-.204.091.182.227.318.409.409-.143.189-.325.325-.545.409.57.289.524.47-.136.545.737.029,1.463-.062,2.18-.272-.318-.045-.636-.091-.954-.136-.179-.19-.134-.326.136-.409.831-.084,1.626-.289,2.384-.613.146.367.396.64.749.817-.509.135-1.054.158-1.635.068.246.126.473.285.681.477.543-.228,1.088-.319,1.635-.272l-.136.136c-1.427.46-1.427.664,0,.613.373.228.736.182,1.09-.136-.239-.028-.466-.096-.681-.204.028-.08.074-.148.136-.204-.137-.296-.365-.455-.681-.477v-.681h-.409v-.409c.395-.051.758.017,1.09.204-.658.15-.68.309-.068.477.196.191.309.418.341.681.47-.093.902-.275,1.294-.545.402.325.72.234.954-.272.239.132.308.291.204.477-.506.161-1.006.342-1.499.545.857-.045,1.652-.294,2.384-.749.125.113.215.249.272.409.037-.218.105-.422.204-.613.426-.053.835-.167,1.226-.341.068.15.113.286.136.409.516-.164,1.015-.369,1.499-.613-.415-.013-.824.056-1.226.204-.176-.081-.358-.15-.545-.204.483-.557,1.074-.897,1.771-1.022-.236-.069-.281-.183-.136-.341-.129-.066-.265-.088-.409-.068.038-.174.129-.31.272-.409.33-.072.648-.186.954-.341-.221-.116-.267-.252-.136-.409.269-.026.542-.003.817.068.781-.084.826-.22.136-.409.261-.016.534-.106.817-.272.124-.397.396-.669.817-.817.154.17.336.307.545.409.091-.023.182-.045.272-.068-.521-.111-.544-.27-.068-.477.129.055.22.146.272.272.197-.225.447-.316.749-.272-.097-.123-.233-.169-.409-.136v-.409c1.06-.321,2.014-.821,2.861-1.499,1.045-.363,2.09-.727,3.133-1.09.134.065.247.156.341.272.571-.436,1.161-.482,1.771-.136.257-.095.508-.208.749-.341-.191-.183-.146-.296.136-.341.544-.016,1.088-.062,1.635-.136.148.167.33.281.545.341-.742.141-1.47.368-2.18.681-1.332.947-2.558,2.014-3.678,3.201-.091,0-.136.045-.136.136-.455.083-.5.242-.136.477-.657.724-1.383,1.383-2.18,1.975l-.136-.136c.437-.414.846-.846,1.226-1.294-.859.002-.905-.179-.136-.545-.191-.081-.372-.058-.545.068-.25-.436-.523-.39-.817.136-.57.128-.638.355-.204.681,1.463-.435,1.531-.185.204.749.159.37.068.688-.272.954-.363.272-.727.545-1.09.817-.353-.058-.694-.081-1.022-.068-1.004,1.22-2.298,2.014-3.882,2.384l-.341.341c-.457-.133-.547.004-.272.409.218-.209.468-.277.749-.204-.716.483-1.465.914-2.248,1.294-.091-.091-.091-.182,0-.272.247-.201.497-.383.749-.545-.321-.161-.639-.139-.954.068-.431.267-.885.494-1.362.681.241.073.287.186.136.341-.08-.028-.148-.074-.204-.136-.702.146-1.383.373-2.043.681-.129-.055-.22-.146-.272-.272-.067.176-.089.358-.068.545-.224.029-.428-.016-.613-.136-.066.129-.088.265-.068.409-.286.003-.536-.088-.749-.272-.177.019-.291.11-.341.272-.436.083-.617.356-.545.817h-.409c.055-.219.055-.401,0-.545-.363.182-.727.363-1.09.545-.275.791-.661.972-1.158.545-.074.107-.165.244-.272.409-.245-.173-.494-.173-.749,0-.338-.288-.701-.288-1.09,0-.121.112-.166.249-.136.409-.306-.111-.623-.201-.954-.272-1.09.28-2.18.575-3.269.885-2.016.297-4.014.683-5.994,1.158-.631-.143-1.267-.166-1.907-.068.327.025.645.093.954.204-1.634.483-3.314.778-5.04.885l.136.136c-1.09.173-2.18.196-3.269.068.215-.109.442-.177.681-.204-.396-.18-.805-.225-1.226-.136.169.203.101.316-.204.341-.519.088-1.042.156-1.567.204.772.045,1.544.091,2.316.136-.136.045-.272.091-.409.136-3.155.157-6.288.475-9.4.954.129.066.265.088.409.068.036.201-.01.383-.136.545-.163-.047-.163-.115,0-.204-.578-.345-1.214-.504-1.907-.477-.615-.016-1.229-.061-1.839-.136-.467.001-.876.137-1.226.409-.742-.088-1.491-.179-2.248-.272.756-.094,1.506-.184,2.248-.272.396.147.782.101,1.158-.136-.023-.045-.045-.091-.068-.136-.629.098-1.265.189-1.907.272-.199-.067-.404-.113-.613-.136-1.405.104-2.813.172-4.223.204.283.026.555.094.817.204-.794.166-1.589.166-2.384,0-.273.137-.545.273-.817.409-.343-.351-.683-.351-1.022,0-.472-.38-.994-.471-1.567-.272-.597-.231-1.21-.299-1.839-.204.153.142.335.233.545.272-.307.171-.579.081-.817-.272l.136-.136c-.68-.068-1.361-.091-2.043-.068-.045.545-.091.545-.136,0-.316-.037-.589.054-.817.272-.121-.112-.166-.249-.136-.409-.232.063-.436.063-.613,0-.067.143-.044.279.068.409-.112.121-.249.166-.409.136.055-.219.055-.401,0-.545-1.044.136-2.111.182-3.201.136-.25-.023-.5-.045-.749-.068-.076-.052-.121-.12-.136-.204-.393-.229-.825-.365-1.294-.409-.366.16-.729.16-1.09,0-.303.118-.598.254-.885.409-.616-.083-1.252-.083-1.907,0-1.248-.148-2.497-.284-3.746-.409-.197.061-.379.151-.545.272-.068-.023-.136-.045-.204-.068.182-.091.182-.182,0-.272-.302-.023-.574-.114-.817-.272-.639-.011-1.252-.125-1.839-.341-.113.341-.272.363-.477.068.091-.045.182-.091.272-.136-.308-.032-.604-.1-.885-.204-.29.058-.585-.01-.885-.204-1.956-.063-3.908-.29-5.858-.681-.182-.091-.182-.182,0-.272-.5-.045-.999-.091-1.499-.136-.418-.041-.782-.2-1.09-.477-.091.045-.182.091-.272.136-1.13-.291-2.266-.587-3.406-.885-.156-.088-.292-.201-.409-.341-.438.083-.847-.03-1.226-.341.045-.045.091-.091.136-.136-.348-.104-.688-.217-1.022-.341-.045.045-.091.091-.136.136-.203-.316-.452-.339-.749-.068.16.057.296.148.409.272-.713.143-1.372.03-1.975-.341-.451.521-1.018.68-1.703.477.045-.045.091-.091.136-.136-.221-.032-.357-.146-.409-.341.257-.106.53-.106.817,0,.011-.195-.035-.377-.136-.545.496-.025.973.111,1.43.409.191-.099.395-.167.613-.204-.435-.194-.843-.421-1.226-.681-1.147-.369-2.282-.777-3.406-1.226-.252-.149-.479-.33-.681-.545-1.411-.58-2.75-1.284-4.019-2.112-.066-.129-.088-.265-.068-.409-.593-.138-1.138-.387-1.635-.749-.667-.686-1.439-1.254-2.316-1.703-.101-.306-.283-.556-.545-.749-.443-.034-.852-.17-1.226-.409-.205-.114-.273-.273-.204-.477.182.091.363.182.545.272.023-.045.045-.091.068-.136-.384-.452-.792-.883-1.226-1.294.11-.042.201-.11.272-.204-.631-.27-1.131-.678-1.499-1.226.005.148.051.284.136.409-.068.139-.159.162-.272.068-1.368-1.355-2.231-2.944-2.588-4.768-.383-.654-.633-1.358-.749-2.112-.234-1.892-.348-3.776-.341-5.653.244-1.314.584-2.609,1.022-3.882.818-1.547,1.635-3.091,2.452-4.632.471-.379.834-.833,1.09-1.362.045.045.091.091.136.136.198-.377.493-.649.885-.817.371.142.53.005.477-.409-.098.13-.211.152-.341.068.103-.206.239-.388.409-.545.636.125,1.091-.124,1.362-.749.13.113.266.135.409.068-.155-.101-.155-.215,0-.341.946-.178,1.763-.609,2.452-1.294.321-.021.639-.021.954,0-.226-.099-.294-.258-.204-.477.653-.407,1.357-.634,2.112-.681.008-.285.145-.489.409-.613.315-.068.633-.09.954-.068.136-.091.272-.182.409-.272.123-.097.169-.233.136-.409,1.255-.266,2.504-.674,3.746-1.226.278.107.551.062.817-.136.023.045.045.091.068.136-.119.102-.256.17-.409.204.125.038.216.106.272.204.257-.028.462.063.613.272.097-.201.256-.292.477-.272.091.182.182.182.272,0,.948-.143,1.856-.506,2.725-1.09.246.066.473.112.681.136ZM850.421,105.577c-.45.271-.904.543-1.362.817-.22.073-.447.119-.681.136.335-.225.63-.498.885-.817.076.071.167.116.272.136.262-.205.557-.295.885-.272ZM845.926,105.85c.091.183.091.342,0,.477.175.093.334.07.477-.068.064.147.041.283-.068.409-.183-.091-.342-.091-.477,0-.277-.358-.618-.448-1.022-.272.15-.122.15-.236,0-.341.159-.068.272-.182.341-.341.199.315.448.36.749.136ZM844.836,106.395c-.351.175-.714.357-1.09.545-.109.062-.154.153-.136.272-.456,0-.865.137-1.226.409-.241-.073-.287-.186-.136-.341.849-.237,1.621-.623,2.316-1.158.093.101.184.192.272.272ZM850.966,106.667c-.001.341-.092.363-.272.068.081-.063.172-.086.272-.068ZM840.885,107.348c.358.126.721.263,1.09.409-.364.33-.773.421-1.226.272-.057-.098-.148-.166-.272-.204.212-.098.348-.257.409-.477ZM839.251,108.847c.533.126.533.262,0,.409-.145-.126-.145-.262,0-.409ZM840.068,109.119c.14.054.162.145.068.272-.182.091-.363.182-.545.272-.118-.326-.05-.417.204-.272.139-.048.23-.139.272-.272ZM850.694,109.664c.155-.399.336-.444.545-.136-.162.127-.344.172-.545.136ZM837.888,110.073c.883.221.838.289-.136.204.076-.052.121-.12.136-.204ZM855.87,111.571c-.32.392-.433.347-.341-.136.091.102.205.148.341.136ZM855.734,114.568c-.138.16-.32.251-.545.272.107-.219.289-.309.545-.272ZM854.644,115.113c-.158.238-.385.375-.681.409.158-.238.385-.375.681-.409ZM831.213,120.699c-.026-.218.043-.4.204-.545.115.267.047.449-.204.545ZM828.761,132.687c-.204-.347-.409-.71-.613-1.09-.388-1.344-.774-2.683-1.158-4.019.014-1.313.014-2.63,0-3.951.049-.167.117-.326.204-.477-.013.789.101,1.538.341,2.248-.099.485-.145.962-.136,1.43.177,2.026.631,3.979,1.362,5.858ZM829.034,127.51c.084.015.152.06.204.136.032.308.1.604.204.885-.045.023-.091.045-.136.068-.12-.358-.211-.722-.272-1.09ZM916.764,132.414c-.018.119.028.21.136.272.159-.163.114-.254-.136-.272ZM828.761,132.687c.241.111.31.293.204.545-.108-.17-.176-.351-.204-.545ZM858.05,133.504c.197-.152.424-.174.681-.068.932.443,1.795.988,2.588,1.635-.136.091-.272.091-.409,0-.951-.536-1.904-1.058-2.861-1.567ZM829.442,133.913c.327.295.554.658.681,1.09-.493-.253-.72-.616-.681-1.09ZM915.947,134.049c-.018.101.005.192.068.272.295-.18.273-.271-.068-.272ZM955.044,135.275c.038-.107.106-.198.204-.272.072.179.004.27-.204.272ZM951.639,135.139c.174.121.174.257,0,.409-.347-.143-.347-.279,0-.409ZM950.821,135.684c.121-.174.257-.174.409,0-.126.145-.262.145-.409,0ZM950.14,136.092c.265-.042.492-.042.681,0-.245.175-.472.175-.681,0ZM954.227,136.365c-.238.326-.466.326-.681,0,.312-.475.539-.475.681,0ZM949.459,136.501c.321-.022.639,0,.954.068-.175.243-.38.266-.613.068-.196.255-.423.482-.681.681-.145-.094-.304-.162-.477-.204.354-.121.626-.325.817-.613ZM914.448,136.91c.107-.039.198-.107.272-.204-.179-.072-.27-.004-.272.204ZM848.242,136.773c.171-.005.307.063.409.204-.204.08-.34.012-.409-.204ZM871.809,137.182c-.354-.019-.672-.133-.954-.341.361-.008.679.105.954.341ZM913.767,137.046c-.108.2-.108.381,0,.545.175-.199.175-.38,0-.545ZM947.688,137.455c-.341-.001-.363-.092-.068-.272.063.081.086.172.068.272ZM872.626,137.318c.792-.021.837.07.136.272-.109-.062-.154-.153-.136-.272ZM844.7,137.455c.225.022.407.113.545.272-.256.037-.438-.054-.545-.272ZM875.487,138.408c-.316-.174-.657-.31-1.022-.409-.104.01-.172.055-.204.136-.164-.213-.436-.417-.817-.613.674.05,1.309.255,1.907.613.109.062.154.153.136.272ZM947.688,137.455h.272c-.091.183-.091.342,0,.477-.315.068-.633.09-.954.068.273-.134.5-.316.681-.545ZM949.595,137.455c.174.094.174.207,0,.341-.845.445-1.662.921-2.452,1.43-.11-.042-.201-.11-.272-.204.983-.423,1.892-.945,2.725-1.567ZM845.245,137.727c.208.002.276.093.204.272-.098-.074-.166-.165-.204-.272ZM915.13,137.863c-.154.085-.29.198-.409.341.271.071.407-.043.409-.341ZM947.007,138v.272c-.224-.003-.405.088-.545.272-.11-.042-.201-.11-.272-.204.198-.275.471-.388.817-.341ZM913.904,138.136c-.254.71-.662,1.323-1.226,1.839.25-.023.5-.045.749-.068.21-.269.278-.542.204-.817.136-.113.272-.227.409-.341-.051-.218-.096-.423-.136-.613ZM950.821,138.136c.465.049.783.208.954.477-.46.457-1.005.775-1.635.954-.335.602-.562.624-.681.068-.162.505-.457.913-.885,1.226-.023-.068-.045-.136-.068-.204.242-.232.469-.482.681-.749-.298-.083-.57.008-.817.272-.08-.028-.148-.074-.204-.136-.042.172-.11.331-.204.477-.326.039-.644.107-.954.204l-.136-.136c1.245-.678,2.448-1.405,3.61-2.18.178.089.292-.002.341-.272ZM843.201,138.408c.907.094,1.701.503,2.384,1.226.091.091.091.182,0,.272-.849-.418-1.643-.918-2.384-1.499ZM949.05,138.817c.111-.182.27-.318.477-.409-.004.269-.163.406-.477.409ZM945.236,139.226c.161-.162.161-.321,0-.477.338-.297.61-.252.817.136-.234.212-.506.326-.817.341ZM842.929,138.953c.079-.173.169-.173.272,0-.064.131-.155.131-.272,0ZM871.264,139.226c-.393-.066-.756-.066-1.09,0-.372-.2-.349-.336.068-.409.345.148.686.284,1.022.409ZM951.775,138.953c.146.102.169.239.068.409-.235-.116-.258-.252-.068-.409ZM946.326,139.634c-.198-.109-.425-.177-.681-.204.315-.09.633-.158.954-.204.029.229-.062.365-.272.409ZM871.537,139.362c.877.194,1.694.535,2.452,1.022-.349.021-.69-.047-1.022-.204-.256.221-.437.176-.545-.136l-.136.136c-.378-.308-.809-.512-1.294-.613.212-.029.394-.097.545-.204ZM844.564,139.77c-.171.005-.307-.063-.409-.204.204-.08.34-.012.409.204ZM944.827,139.498c.107.039.198.107.272.204-.179.072-.27.004-.272-.204ZM951.366,139.498c.341.001.363.092.068.272-.063-.081-.086-.172-.068-.272ZM856.552,140.043c-.776-.082-.821-.218-.136-.409.121.112.166.249.136.409ZM946.326,140.315c.286-.358.65-.562,1.09-.613-.316.294-.679.498-1.09.613ZM846.334,139.907c.194.028.375.097.545.204-.252.105-.434.037-.545-.204ZM847.152,140.315c.587.042.701.314.341.817-.153-.26-.266-.532-.341-.817ZM850.421,140.315c.171-.005.307.063.409.204-.204.08-.34.012-.409-.204ZM946.053,140.452c-.064.192-.201.282-.409.272.064-.192.201-.282.409-.272ZM847.969,140.724c.225.022.407.113.545.272h-.409c.008.495-.128.518-.409.068.171-.057.262-.17.272-.341ZM846.879,142.359c-1.082-.246-2.081-.677-2.997-1.294,1.046.311,2.045.743,2.997,1.294ZM838.978,141.269c.084-.015.152-.06.204-.136.238.198.487.38.749.545-.045.045-.091.091-.136.136-.315-.136-.588-.318-.817-.545ZM849.059,141.269c.33.072.648.186.954.341-.076.052-.121.12-.136.204-.321-.114-.593-.296-.817-.545ZM886.113,141.541c.662.124,1.321.124,1.975,0,.544.09,1.066.249,1.567.477-.315.265-.542.515-.681.749-.11-.258-.292-.439-.545-.545-.15.154-.105.268.136.341-.315.068-.633.09-.954.068-.028-.257.063-.462.272-.613-.634.054-1.224-.104-1.771-.477ZM847.561,145.492c-.091-.091-.182-.182-.272-.272.279.001.551.047.817.136.363-.091.363-.182,0-.272-2.799-.742-5.455-1.787-7.969-3.133-.091-.091-.091-.182,0-.272,3.113,1.262,6.246,2.443,9.4,3.542.271-.003.543-.003.817,0,2.746,1.067,5.494,2.134,8.242,3.201-1.229.367-2.478.162-3.746-.613-.878.172-1.673-.032-2.384-.613-.592-.063-1.183-.131-1.771-.204.019-.221-.072-.38-.272-.477-.318-.045-.636-.091-.954-.136-.598-.413-1.234-.708-1.907-.885ZM929.297,141.678c.341.001.363.092.068.272-.063-.081-.086-.172-.068-.272ZM850.558,142.223c-.256.037-.438-.054-.545-.272.307-.218.489-.127.545.272ZM919.353,142.086c.121-.321.303-.344.545-.068-.176.067-.358.089-.545.068ZM941.013,142.768c-.018-.119.028-.21.136-.272.456-.08.865-.261,1.226-.545.08.028.148.074.204.136.261-.23.556-.298.885-.204-.796.364-1.614.659-2.452.885ZM850.83,142.495c-.136-.045-.227-.136-.272-.272.384-.343.475-.253.272.272ZM882.026,142.495c-.492.013-.946-.1-1.362-.341.484.018.938.131,1.362.341ZM921.532,142.086c.361.062.429.199.204.409-.142-.101-.21-.238-.204-.409ZM934.746,142.086c.187-.021.369.001.545.068.047.28-.043.552-.272.817-.835.122-.88.008-.136-.341-.448-.112-.902-.18-1.362-.204.296-.245.614-.268.954-.068.139-.048.23-.139.272-.272ZM890.336,142.223c.727.059,1.453.127,2.18.204-.12.2-.302.314-.545.341-.585-.104-1.13-.286-1.635-.545ZM944.01,142.223c.256-.015.301.054.136.204-.252.114-.502.228-.749.341-.094-.113-.071-.204.068-.272.208-.067.389-.158.545-.272ZM846.879,142.359c.253-.031.366.06.341.272-.136-.077-.249-.168-.341-.272ZM850.83,142.495h.272c-.039.331-.13.331-.272,0ZM882.98,142.495c.25.019.296.11.136.272-.109-.062-.154-.153-.136-.272ZM932.703,142.495c.119-.018.21.028.272.136-.167.152-.348.175-.545.068.125-.038.216-.106.272-.204ZM941.013,142.768c-.294.124-.612.214-.954.272.217-.42.535-.511.954-.272ZM928.752,142.768c.411-.022.82,0,1.226.068-.322.027-.549.186-.681.477-.168-.102-.35-.147-.545-.136v-.409ZM931.341,142.768c.294.051.294.187,0,.409-.08-.1-.08-.236,0-.409ZM925.892,143.449c.366-.154.729-.335,1.09-.545.446.103.9.171,1.362.204.062.056.108.125.136.204-.858.136-1.721.181-2.588.136ZM857.233,143.176c.343.035.661.148.954.341-.406.113-.724,0-.954-.341ZM899.327,143.449c.29-.154.608-.177.954-.068-.072.094-.162.162-.272.204-.214-.11-.441-.156-.681-.136ZM944.555,143.857c-.006-.51.085-.533.272-.068-.081.063-.172.086-.272.068ZM907.092,144.13c.15-.15.332-.172.545-.068-.161.241-.343.264-.545.068ZM844.291,144.266c.221-.112.448-.067.681.136-.023.045-.045.091-.068.136-.2-.104-.405-.195-.613-.272ZM862.409,144.266c.079-.173.169-.173.272,0-.064.131-.155.131-.272,0ZM904.64,144.811c-.179-.133-.361-.269-.545-.409.179-.325.406-.348.681-.068-.114.138-.159.297-.136.477ZM862.818,144.402c.214-.144.395-.076.545.204-.213.041-.395-.027-.545-.204ZM866.905,144.538c-.253.031-.366-.06-.341-.272.136.077.249.168.341.272ZM901.098,144.538c.254-.176.526-.176.817,0-.267.139-.539.139-.817,0ZM907.092,144.402c.123.097.169.233.136.409-.213.003-.417.048-.613.136-.144-.018-.258-.086-.341-.204.348,0,.62-.114.817-.341ZM932.567,145.628c.411-.19.842-.372,1.294-.545l.136.136c.565-.129,1.133-.265,1.703-.409.21.461.505.506.885.136.102.085.216.153.341.204-.501.27-.977.247-1.43-.068-.216.383-.512.473-.885.272-.121.112-.166.249-.136.409-.328-.05-.645-.141-.954-.272-.323.193-.641.238-.954.136ZM869.766,144.947c.101-.018.192.005.272.068-.188.641-.279.618-.272-.068ZM855.326,145.356c.25.087.295.223.136.409-.275-.086-.321-.222-.136-.409ZM864.589,145.628c.166-.131.348-.109.545.068-.195.079-.376.056-.545-.068ZM932.567,145.628c.018.101-.005.192-.068.272-.194-.013-.398-.058-.613-.136.21-.13.438-.175.681-.136ZM908.999,145.901c.184-.177.365-.154.545.068-.18.027-.361.004-.545-.068ZM910.634,146.037c.165-.175.346-.175.545,0-.163.108-.345.108-.545,0ZM872.082,146.309c-.18-.023-.339.022-.477.136-.051-.125-.119-.238-.204-.341.277-.082.504-.013.681.204ZM872.082,146.309c.32.013.547.149.681.409-.281-.025-.554-.094-.817-.204.076-.052.121-.12.136-.204ZM873.171,146.718h.409c-.102.519-.238.519-.409,0ZM927.254,146.991c.121-.174.257-.174.409,0-.1.08-.236.08-.409,0ZM867.45,147.399c-.384-.005-.748-.096-1.09-.272l.136-.136c.343.113.661.249.954.409ZM867.858,147.399c.107.039.198.107.272.204-.179.072-.27.004-.272-.204ZM872.354,147.808c.079-.173.169-.173.272,0-.064.131-.155.131-.272,0ZM871.537,148.625c.244-.153.516-.176.817-.068-.246.196-.518.219-.817.068ZM859.685,149.17c-.229-.053-.456-.122-.681-.204.154-.138.109-.229-.136-.272.223-.067.45-.09.681-.068-.009.199.036.38.136.545ZM875.487,148.898c.308.101.331.237.068.409-.235-.116-.258-.252-.068-.409ZM860.775,149.17c.25.019.296.11.136.272-.109-.062-.154-.153-.136-.272ZM862.137,149.17c.915.373.869.464-.136.272.049-.093.095-.184.136-.272ZM888.02,149.715c.268.061.313.197.136.409-.121-.112-.166-.249-.136-.409ZM865.134,149.988c.18.023.339-.022.477-.136.145.094.304.162.477.204-.346.108-.664.086-.954-.068ZM867.586,150.941c1.207-.168,2.433-.145,3.678.068-1.229.235-2.455.212-3.678-.068ZM880.936,151.35c.519-.156,1.064-.179,1.635-.068-.16.313-.342.359-.545.136-.36-.068-.724-.09-1.09-.068ZM907.637,151.486c.081-.087.195-.132.341-.136.385.075.771.144,1.158.204-.345.046-.686.114-1.022.204-.147-.127-.306-.217-.477-.272ZM877.939,152.031c.002-.208.093-.276.272-.204-.074.098-.165.166-.272.204Z" style="fill: #fff; fill-rule: evenodd; isolation: isolate; opacity: .938;"/>
    <path d="M847.016,105.032c-.075.287-.257.401-.545.341.163-.149.344-.263.545-.341Z" style="fill: #fff; fill-rule: evenodd; isolation: isolate; opacity: .188;"/>
    <path d="M856.552,105.441c.119-.018.21.028.272.136-.314.187-.405.142-.272-.136Z" style="fill: #fff; fill-rule: evenodd; isolation: isolate; opacity: .251;"/>
    <path d="M847.288,105.85h-.272c.091-.363.182-.363.272,0Z" style="fill: #fff; fill-rule: evenodd; isolation: isolate; opacity: .204;"/>
    <path d="M841.294,107.076c-.143.02-.28-.002-.409-.068.17-.101.306-.078.409.068Z" style="fill: #fff; fill-rule: evenodd; isolation: isolate; opacity: .481;"/>
    <path d="M853.146,107.621h.136c-.005.436-.232.663-.681.681v-.272c.091,0,.136-.045.136-.136.135.023.226-.022.272-.136.091,0,.136-.045.136-.136Z" style="fill: #fff; fill-rule: evenodd; isolation: isolate; opacity: .453;"/>
    <path d="M855.053,107.621c.341.001.363.092.068.272-.063-.081-.086-.172-.068-.272Z" style="fill: #fff; fill-rule: evenodd; isolation: isolate; opacity: .335;"/>
    <path d="M856.007,107.893c.054-.14.145-.162.272-.068-.081.063-.172.086-.272.068Z" style="fill: #fff; fill-rule: evenodd; isolation: isolate; opacity: .157;"/>
    <path d="M855.326,108.029c.25.019.296.11.136.272-.109-.062-.154-.153-.136-.272Z" style="fill: #fff; fill-rule: evenodd; isolation: isolate; opacity: .267;"/>
    <path d="M852.329,108.302h.272c-.099.342-.28.433-.545.272.091,0,.136-.045.136-.136.091,0,.136-.045.136-.136Z" style="fill: #fff; fill-rule: evenodd; isolation: isolate; opacity: .302;"/>
    <path d="M856.552,108.302c.523.015.523.106,0,.272-.131-.064-.131-.155,0-.272Z" style="fill: #fff; fill-rule: evenodd; isolation: isolate; opacity: .213;"/>
    <path d="M855.189,108.574c.054-.14.145-.162.272-.068-.081.063-.172.086-.272.068Z" style="fill: #fff; fill-rule: evenodd; isolation: isolate; opacity: .188;"/>
    <path d="M853.01,108.574c.337.034.337.124,0,.272-.131-.064-.131-.155,0-.272Z" style="fill: #fff; fill-rule: evenodd; isolation: isolate; opacity: .392;"/>
    <path d="M853.963,108.574c.341.001.363.092.068.272-.063-.081-.086-.172-.068-.272Z" style="fill: #fff; fill-rule: evenodd; isolation: isolate; opacity: .439;"/>
    <path d="M852.737,109.255c-.135-.023-.226.022-.272.136-.3-.047-.323-.138-.068-.272.348-.224.462-.179.341.136Z" style="fill: #fff; fill-rule: evenodd; isolation: isolate; opacity: .235;"/>
    <path d="M855.189,109.255c.054-.14.145-.162.272-.068-.081.063-.172.086-.272.068Z" style="fill: #fff; fill-rule: evenodd; isolation: isolate; opacity: .22;"/>
    <path d="M859.821,109.255c.14.054.162.145.068.272-.148.108-.307.199-.477.272-.139-.068-.162-.159-.068-.272.177-.08.336-.17.477-.272Z" style="fill: #fff; fill-rule: evenodd; isolation: isolate; opacity: .496;"/>
    <path d="M857.778,109.8c.294.075.271.212-.068.409-.063-.081-.086-.172-.068-.272.091,0,.136-.045.136-.136Z" style="fill: #fff; fill-rule: evenodd; isolation: isolate; opacity: .188;"/>
    <path d="M859.685,109.8c.173.079.173.169,0,.272-.13.113-.266.135-.409.068.146-.116.282-.23.409-.341Z" style="fill: #fff; fill-rule: evenodd; isolation: isolate; opacity: .167;"/>
    <path d="M860.366,109.937c.102-.146.239-.169.409-.068-.129.066-.265.088-.409.068Z" style="fill: #fff; fill-rule: evenodd; isolation: isolate; opacity: .209;"/>
    <path d="M857.641,115.386c-.165.059-.301.15-.409.272-.279-.028-.325-.142-.136-.341.213-.104.395-.081.545.068Z" style="fill: #fff; fill-rule: evenodd; isolation: isolate; opacity: .496;"/>
    <path d="M857.641,115.386c.14.054.162.145.068.272-.063-.081-.086-.172-.068-.272Z" style="fill: #fff; fill-rule: evenodd; isolation: isolate; opacity: .188;"/>
    <path d="M856.688,115.522c.173.079.173.169,0,.272-.131-.064-.131-.155,0-.272Z" style="fill: #fff; fill-rule: evenodd; isolation: isolate; opacity: .167;"/>
    <path d="M857.233,115.658c.101-.018.192.005.272.068-.217.142-.421.301-.613.477-.091-.091-.091-.182,0-.272.136-.077.249-.168.341-.272Z" style="fill: #fff; fill-rule: evenodd; isolation: isolate; opacity: .267;"/>
    <path d="M856.007,116.067c.019-.25.11-.296.272-.136-.062.109-.153.154-.272.136Z" style="fill: #fff; fill-rule: evenodd; isolation: isolate; opacity: .22;"/>
    <path d="M856.007,116.067c.078.253.078.48,0,.681-.941-.106-1.009-.378-.204-.817.052.076.12.121.204.136Z" style="fill: #fff; fill-rule: evenodd; isolation: isolate; opacity: .534;"/>
    <path d="M853.691,116.612c.374-.013.465.123.272.409-.211-.044-.302-.18-.272-.409Z" style="fill: #fff; fill-rule: evenodd; isolation: isolate; opacity: .299;"/>
    <path d="M856.007,116.748c.14.054.162.145.068.272-.063-.081-.086-.172-.068-.272Z" style="fill: #fff; fill-rule: evenodd; isolation: isolate; opacity: .188;"/>
    <path d="M854.781,116.884c.119-.018.21.028.272.136-.314.187-.405.142-.272-.136Z" style="fill: #fff; fill-rule: evenodd; isolation: isolate; opacity: .464;"/>
    <path d="M851.239,120.835c.174.121.174.257,0,.409-.347-.143-.347-.279,0-.409Z" style="fill: #fff; fill-rule: evenodd; isolation: isolate; opacity: .136;"/>
    <path d="M885.841,123.696c-.091,0-.136.045-.136.136-.298.201-.616.383-.954.545-.109-.062-.154-.153-.136-.272.229-.053.456-.122.681-.204-.091-.045-.182-.091-.272-.136l.613-.204c.104.01.172.055.204.136Z" style="fill: #fff; fill-rule: evenodd; isolation: isolate; opacity: .198;"/>
    <path d="M885.841,123.696c.523.015.523.106,0,.272-.083-.017-.128-.062-.136-.136.091,0,.136-.045.136-.136Z" style="fill: #fff; fill-rule: evenodd; isolation: isolate; opacity: .301;"/>
    <path d="M851.102,124.24c.184-.177.365-.154.545.068-.195.079-.376.056-.545-.068Z" style="fill: #fff; fill-rule: evenodd; isolation: isolate; opacity: .306;"/>
    <path d="M851.375,125.194c.087-.25.223-.295.409-.136-.112.121-.249.166-.409.136Z" style="fill: #fff; fill-rule: evenodd; isolation: isolate; opacity: .213;"/>
    <path d="M859.14,129.962c-.246.001-.473-.067-.681-.204.113-.023.227-.045.341-.068.187.025.301.116.341.272Z" style="fill: #fff; fill-rule: evenodd; isolation: isolate; opacity: .392;"/>
    <path d="M859.14,129.962c.218-.138.4-.07.545.204-.252.105-.434.037-.545-.204Z" style="fill: #fff; fill-rule: evenodd; isolation: isolate; opacity: .287;"/>
    <path d="M961.038,132.414c.108.039.199.107.272.204-.18.072-.27.004-.272-.204Z" style="fill: #fff; fill-rule: evenodd; isolation: isolate; opacity: .209;"/>
    <path d="M955.862,132.687c.097-.123.233-.169.409-.136-.026.477-.162.523-.409.136Z" style="fill: #fff; fill-rule: evenodd; isolation: isolate; opacity: .448;"/>
    <path d="M948.505,135.547c.14.054.162.145.068.272-.063-.081-.086-.172-.068-.272Z" style="fill: #fff; fill-rule: evenodd; isolation: isolate; opacity: .094;"/>
    <path d="M872.49,135.684c.484-.05.892.086,1.226.409-.309.096-.627.073-.954-.068-.171-.057-.262-.17-.272-.341Z" style="fill: #fff; fill-rule: evenodd; isolation: isolate; opacity: .558;"/>
    <path d="M949.187,135.82c.102-.146.239-.169.409-.068-.129.066-.265.088-.409.068Z" style="fill: #fff; fill-rule: evenodd; isolation: isolate; opacity: .439;"/>
    <path d="M830.668,136.092c.261.159.374.386.341.681-.187-.192-.3-.419-.341-.681Z" style="fill: #fff; fill-rule: evenodd; isolation: isolate; opacity: .242;"/>
    <path d="M955.044,136.501c.331.116.309.253-.068.409-.063-.081-.086-.172-.068-.272.091,0,.136-.045.136-.136Z" style="fill: #fff; fill-rule: evenodd; isolation: isolate; opacity: .335;"/>
    <path d="M826.309,136.91c.782.55,1.599,1.026,2.452,1.43.759.084,1.486.289,2.18.613.16-.057.296-.148.409-.272.581.225,1.172.429,1.771.613.432.433.886.841,1.362,1.226-.596.205-1.187.16-1.771-.136-1.726-.727-3.451-1.453-5.177-2.18-.608-.255-1.017-.687-1.226-1.294Z" style="fill: #fff; fill-rule: evenodd; isolation: isolate; opacity: .776;"/>
    <path d="M876.713,136.91c1.117.319,2.207.705,3.269,1.158-.459.045-.913,0-1.362-.136-.687-.125-1.322-.329-1.907-.613v-.409Z" style="fill: #fff; fill-rule: evenodd; isolation: isolate; opacity: .587;"/>
    <path d="M909.681,137.046c-.101.018-.192-.005-.272-.068.128-.094.218-.072.272.068Z" style="fill: #fff; fill-rule: evenodd; isolation: isolate; opacity: .188;"/>
    <path d="M829.851,137.182c.15-.15.332-.172.545-.068.368.183.731.364,1.09.545-.626.118-1.171-.041-1.635-.477Z" style="fill: #fff; fill-rule: evenodd; isolation: isolate; opacity: .658;"/>
    <path d="M831.486,137.046c.204-.012.34.079.409.272-.258.155-.395.064-.409-.272Z" style="fill: #fff; fill-rule: evenodd; isolation: isolate; opacity: .493;"/>
    <path d="M952.184,137.318c.101-.018.192.005.272.068-.128.094-.218.072-.272-.068Z" style="fill: #fff; fill-rule: evenodd; isolation: isolate; opacity: .251;"/>
    <path d="M944.146,138.136c.14.054.162.145.068.272-.063-.081-.086-.172-.068-.272Z" style="fill: #fff; fill-rule: evenodd; isolation: isolate; opacity: .314;"/>
    <path d="M944.964,138.408c-.16.03-.296-.016-.409-.136.211-.177.348-.131.409.136Z" style="fill: #fff; fill-rule: evenodd; isolation: isolate; opacity: .439;"/>
    <path d="M941.422,138.544c-.018-.119.028-.21.136-.272.525.205.48.296-.136.272Z" style="fill: #fff; fill-rule: evenodd; isolation: isolate; opacity: .491;"/>
    <path d="M943.738,138.272c.25.019.296.11.136.272-.109-.062-.154-.153-.136-.272Z" style="fill: #fff; fill-rule: evenodd; isolation: isolate; opacity: .376;"/>
    <path d="M941.422,138.544v.272c-.38-.033-.449-.169-.204-.409.052.076.12.121.204.136Z" style="fill: #fff; fill-rule: evenodd; isolation: isolate; opacity: .428;"/>
    <path d="M943.193,138.408c.16-.03.296.016.409.136-.211.177-.348.131-.409-.136Z" style="fill: #fff; fill-rule: evenodd; isolation: isolate; opacity: .502;"/>
    <path d="M950.821,138.544c.173.079.173.169,0,.272-.131-.064-.131-.155,0-.272Z" style="fill: #fff; fill-rule: evenodd; isolation: isolate; opacity: .146;"/>
    <path d="M940.196,138.681c.25.019.296.11.136.272-.109-.062-.154-.153-.136-.272Z" style="fill: #fff; fill-rule: evenodd; isolation: isolate; opacity: .408;"/>
    <path d="M941.422,138.817c.278-.133.323-.042.136.272-.109-.062-.154-.153-.136-.272Z" style="fill: #fff; fill-rule: evenodd; isolation: isolate; opacity: .276;"/>
    <path d="M944.691,138.817c-.48.463-1.025.69-1.635.681-.016-.658.28-.839.885-.545.232-.245.481-.29.749-.136Z" style="fill: #fff; fill-rule: evenodd; isolation: isolate; opacity: .602;"/>
    <path d="M949.868,138.953c.201-.036.383.01.545.136-.091.045-.182.091-.272.136-.165-.034-.256-.125-.272-.272Z" style="fill: #fff; fill-rule: evenodd; isolation: isolate; opacity: .298;"/>
    <path d="M938.561,139.089c.874.091.852.227-.068.409-.113-.023-.227-.045-.341-.068.146-.116.282-.23.409-.341Z" style="fill: #fff; fill-rule: evenodd; isolation: isolate; opacity: .59;"/>
    <path d="M937.743,139.362c.25.019.296.11.136.272-.109-.062-.154-.153-.136-.272Z" style="fill: #fff; fill-rule: evenodd; isolation: isolate; opacity: .282;"/>
    <path d="M942.784,139.362c.173.079.173.169,0,.272-.131-.064-.131-.155,0-.272Z" style="fill: #fff; fill-rule: evenodd; isolation: isolate; opacity: .209;"/>
    <path d="M936.245,139.498c.321-.022.639,0,.954.068.062.056.108.125.136.204-.154.104-.313.195-.477.272-.328-.105-.668-.174-1.022-.204l-.136-.136c.212-.029.394-.097.545-.204Z" style="fill: #fff; fill-rule: evenodd; isolation: isolate; opacity: .596;"/>
    <path d="M940.468,139.498c.449-.023.495.067.136.272-.109-.062-.154-.153-.136-.272Z" style="fill: #fff; fill-rule: evenodd; isolation: isolate; opacity: .301;"/>
    <path d="M942.103,139.498c1.294.45,1.272.632-.068.545-.068-.045-.136-.091-.204-.136.094-.139.185-.275.272-.409Z" style="fill: #fff; fill-rule: evenodd; isolation: isolate; opacity: .529;"/>
    <path d="M885.841,139.634c.16-.03.296.016.409.136-.211.177-.348.131-.409-.136Z" style="fill: #fff; fill-rule: evenodd; isolation: isolate; opacity: .387;"/>
    <path d="M931.749,139.77c.337.034.337.124,0,.272-.131-.064-.131-.155,0-.272Z" style="fill: #fff; fill-rule: evenodd; isolation: isolate; opacity: .408;"/>
    <path d="M935.155,139.77c.364.025.455.184.272.477-.363.077-.727.145-1.09.204v-.545c.224-.029.428.016.613.136.098-.074.166-.165.204-.272Z" style="fill: #fff; fill-rule: evenodd; isolation: isolate; opacity: .61;"/>
    <path d="M941.285,140.043c-.063.673-.29.718-.681.136.042-.11.11-.201.204-.272.138.114.297.159.477.136Z" style="fill: #fff; fill-rule: evenodd; isolation: isolate; opacity: .597;"/>
    <path d="M941.285,140.043c.102-.146.239-.169.409-.068-.129.066-.265.088-.409.068Z" style="fill: #fff; fill-rule: evenodd; isolation: isolate; opacity: .293;"/>
    <path d="M930.66,140.043c.25.019.296.11.136.272-.109-.062-.154-.153-.136-.272Z" style="fill: #fff; fill-rule: evenodd; isolation: isolate; opacity: .282;"/>
    <path d="M935.836,140.043c.25.019.296.11.136.272-.109-.062-.154-.153-.136-.272Z" style="fill: #fff; fill-rule: evenodd; isolation: isolate; opacity: .314;"/>
    <path d="M939.923,140.043c.183.091.342.091.477,0,.066.129.088.265.068.409-.249-.075-.476-.075-.681,0l-.136-.136c.101-.093.192-.184.272-.272Z" style="fill: #fff; fill-rule: evenodd; isolation: isolate; opacity: .492;"/>
    <path d="M834.619,140.179c.229.053.456.122.681.204.139.143.161.302.068.477-.193-.131-.398-.244-.613-.341-.102-.091-.148-.205-.136-.341Z" style="fill: #fff; fill-rule: evenodd; isolation: isolate; opacity: .529;"/>
    <path d="M928.071,140.452c.268.061.313.197.136.409-.121-.112-.166-.249-.136-.409Z" style="fill: #fff; fill-rule: evenodd; isolation: isolate; opacity: .48;"/>
    <path d="M941.83,140.452c.25.019.296.11.136.272-.109-.062-.154-.153-.136-.272Z" style="fill: #fff; fill-rule: evenodd; isolation: isolate; opacity: .22;"/>
    <path d="M925.755,140.588c.287-.041.559.005.817.136-.155.126-.155.24,0,.341-.188.169-.369.192-.545.068.072-.094.162-.162.272-.204-.264-.017-.445-.13-.545-.341Z" style="fill: #fff; fill-rule: evenodd; isolation: isolate; opacity: .459;"/>
    <path d="M927.39,140.724c.25.019.296.11.136.272-.109-.062-.154-.153-.136-.272Z" style="fill: #fff; fill-rule: evenodd; isolation: isolate; opacity: .486;"/>
    <path d="M929.842,140.724c.256-.015.301.054.136.204.416.024.825.093,1.226.204-.028.08-.074.148-.136.204-.406.068-.815.091-1.226.068v-.681Z" style="fill: #fff; fill-rule: evenodd; isolation: isolate; opacity: .63;"/>
    <path d="M939.378,140.724c.25.019.296.11.136.272-.109-.062-.154-.153-.136-.272Z" style="fill: #fff; fill-rule: evenodd; isolation: isolate; opacity: .235;"/>
    <path d="M923.303,141.269h.545v-.409c.368-.007.663.129.885.409.191-.099.395-.167.613-.204-.163-.089-.163-.157,0-.204.127.162.172.344.136.545-.593.069-1.183.159-1.771.272-.182-.045-.363-.091-.545-.136.049-.093.095-.184.136-.272Z" style="fill: #fff; fill-rule: evenodd; isolation: isolate; opacity: .576;"/>
    <path d="M923.303,141.269c-.289.216-.516.171-.681-.136.113-.045.227-.091.341-.136.187.025.301.116.341.272Z" style="fill: #fff; fill-rule: evenodd; isolation: isolate; opacity: .454;"/>
    <path d="M925.619,140.997c.235.047.303.183.204.409-.142-.101-.21-.238-.204-.409Z" style="fill: #fff; fill-rule: evenodd; isolation: isolate; opacity: .389;"/>
    <path d="M891.698,141.269c.317-.034.589.056.817.272-.318.138-.636.115-.954-.068.076-.052.121-.12.136-.204Z" style="fill: #fff; fill-rule: evenodd; isolation: isolate; opacity: .451;"/>
    <path d="M920.715,141.405c.119-.018.21.028.272.136-.314.187-.405.142-.272-.136Z" style="fill: #fff; fill-rule: evenodd; isolation: isolate; opacity: .489;"/>
    <path d="M836.254,141.678c.146.102.169.239.068.409-.235-.116-.258-.252-.068-.409Z" style="fill: #fff; fill-rule: evenodd; isolation: isolate; opacity: .235;"/>
    <path d="M926.573,142.086c.054-.14.145-.162.272-.068-.081.063-.172.086-.272.068Z" style="fill: #fff; fill-rule: evenodd; isolation: isolate; opacity: .251;"/>
    <path d="M948.505,141.95c.25.019.296.11.136.272-.109-.062-.154-.153-.136-.272Z" style="fill: #fff; fill-rule: evenodd; isolation: isolate; opacity: .188;"/>
    <path d="M900.145,142.086h.954v.409c-.276.022-.549,0-.817-.068-.102-.091-.148-.205-.136-.341Z" style="fill: #fff; fill-rule: evenodd; isolation: isolate; opacity: .589;"/>
    <path d="M907.501,142.223c-.101.018-.192-.005-.272-.068.128-.094.218-.072.272.068Z" style="fill: #fff; fill-rule: evenodd; isolation: isolate; opacity: .502;"/>
    <path d="M901.371,142.359c.054-.14.145-.162.272-.068-.081.063-.172.086-.272.068Z" style="fill: #fff; fill-rule: evenodd; isolation: isolate; opacity: .345;"/>
    <path d="M908.999,142.223c.119-.018.21.028.272.136-.314.187-.405.142-.272-.136Z" style="fill: #fff; fill-rule: evenodd; isolation: isolate; opacity: .376;"/>
    <path d="M895.513,142.631c.479-.178.979-.178,1.499,0-.318.091-.636.182-.954.272.139.184.32.32.545.409l-.136.136c-.26-.116-.533-.161-.817-.136-.011-.195.035-.377.136-.545-.062-.109-.153-.154-.272-.136Z" style="fill: #fff; fill-rule: evenodd; isolation: isolate; opacity: .444;"/>
    <path d="M903.959,142.495c.11.132.246.245.409.341-.297.231-.615.254-.954.068.25-.076.431-.212.545-.409Z" style="fill: #fff; fill-rule: evenodd; isolation: isolate; opacity: .53;"/>
    <path d="M906.275,142.768c.004.136-.064.227-.204.272-.527.047-1.049-.044-1.567-.272.595-.361,1.185-.361,1.771,0Z" style="fill: #fff; fill-rule: evenodd; isolation: isolate; opacity: .501;"/>
    <path d="M906.275,142.768c.04-.157.153-.247.341-.272.113.045.227.091.341.136-.21.13-.438.175-.681.136Z" style="fill: #fff; fill-rule: evenodd; isolation: isolate; opacity: .37;"/>
    <path d="M894.968,142.631c.25.019.296.11.136.272-.109-.062-.154-.153-.136-.272Z" style="fill: #fff; fill-rule: evenodd; isolation: isolate; opacity: .314;"/>
    <path d="M901.779,142.631c.349.194.803.353,1.362.477-.083.119-.196.187-.341.204-.481-.126-.957-.262-1.43-.409.15-.092.286-.183.409-.272Z" style="fill: #fff; fill-rule: evenodd; isolation: isolate; opacity: .627;"/>
    <path d="M946.462,143.04c.174.121.174.257,0,.409-.347-.143-.347-.279,0-.409Z" style="fill: #fff; fill-rule: evenodd; isolation: isolate; opacity: .335;"/>
    <path d="M830.123,143.312h.409c-.102.519-.238.519-.409,0Z" style="fill: #fff; fill-rule: evenodd; isolation: isolate; opacity: .517;"/>
    <path d="M831.486,143.449h.545v.409c-.509.195-.963.127-1.362-.204.209-.068.413-.045.613.068.14-.046.208-.137.204-.272Z" style="fill: #fff; fill-rule: evenodd; isolation: isolate; opacity: .467;"/>
    <path d="M837.207,143.994c-.173-.079-.173-.169,0-.272.131.064.131.155,0,.272Z" style="fill: #fff; fill-rule: evenodd; isolation: isolate; opacity: .46;"/>
    <path d="M832.167,143.994c.269.126.315.308.136.545-.417-.169-.463-.351-.136-.545Z" style="fill: #fff; fill-rule: evenodd; isolation: isolate; opacity: .545;"/>
    <path d="M844.564,146.991c-.188.063-.279.199-.272.409.06.219.151.423.272.613-.045.068-.091.136-.136.204-.43-.227-.884-.386-1.362-.477-.894-.05-1.756-.232-2.588-.545.195-.256.149-.46-.136-.613-.549.353-1.003.33-1.362-.068-1.988-.609-3.986-1.176-5.994-1.703-.028-.291-.164-.518-.409-.681.068-.045.136-.091.204-.136.779.258,1.574.371,2.384.341.16-.313.342-.359.545-.136.269.067.541.09.817.068.029.224-.016.428-.136.613.537,0,1.059.113,1.567.341.24-.006.467-.051.681-.136.344.482.776.618,1.294.409.424.026.832.117,1.226.272.165-.105.165-.219,0-.341-.675-.017-.72-.176-.136-.477.36.083.724.151,1.09.204.345.352.345.716,0,1.09.143.067.279.044.409-.068.558.284,1.148.466,1.771.545.165.034.256.125.272.272Z" style="fill: #fff; fill-rule: evenodd; isolation: isolate; opacity: .854;"/>
    <path d="M837.207,143.994c.266.093.492.252.681.477-.298.06-.57-.008-.817-.204.049-.093.095-.184.136-.272Z" style="fill: #fff; fill-rule: evenodd; isolation: isolate; opacity: .357;"/>
    <path d="M838.569,144.266c.528.182.528.409,0,.681-.331-.209-.331-.436,0-.681Z" style="fill: #fff; fill-rule: evenodd; isolation: isolate; opacity: .475;"/>
    <path d="M839.387,144.538c.14.054.162.145.068.272-.063-.081-.086-.172-.068-.272Z" style="fill: #fff; fill-rule: evenodd; isolation: isolate; opacity: .157;"/>
    <path d="M942.648,144.675c.256-.015.301.054.136.204.262.024.489.047.681.068-.37.191-.733.396-1.09.613-.182.091-.363.091-.545,0,.179-.226.406-.385.681-.477.121-.112.166-.249.136-.409Z" style="fill: #fff; fill-rule: evenodd; isolation: isolate; opacity: .44;"/>
    <path d="M941.558,145.083c.25.019.296.11.136.272-.109-.062-.154-.153-.136-.272Z" style="fill: #fff; fill-rule: evenodd; isolation: isolate; opacity: .565;"/>
    <path d="M842.52,145.492c1.062.197,1.062.334,0,.409v-.409Z" style="fill: #fff; fill-rule: evenodd; isolation: isolate; opacity: .607;"/>
    <path d="M849.195,145.628c.032-.081.1-.127.204-.136,1.064.394,2.132.643,3.201.749-.165.152-.165.311,0,.477-.023.045-.045.091-.068.136-1.128-.49-2.241-.899-3.338-1.226Z" style="fill: #fff; fill-rule: evenodd; isolation: isolate; opacity: .522;"/>
    <path d="M940.468,145.901c.119-.018.21.028.272.136-.193.153-.397.289-.613.409-.091-.091-.091-.182,0-.272.136-.077.249-.168.341-.272Z" style="fill: #fff; fill-rule: evenodd; isolation: isolate; opacity: .427;"/>
    <path d="M844.019,146.037c.351-.048.668.02.954.204-.072.094-.162.162-.272.204-.308-.039-.535-.175-.681-.409Z" style="fill: #fff; fill-rule: evenodd; isolation: isolate; opacity: .405;"/>
    <path d="M938.016,146.037c.101-.018.192.005.272.068-.128.094-.218.072-.272-.068Z" style="fill: #fff; fill-rule: evenodd; isolation: isolate; opacity: .408;"/>
    <path d="M938.833,146.582c.187-.021.369.001.545.068-.755.321-1.505.661-2.248,1.022-.084-.129-.061-.243.068-.341.565-.24,1.109-.489,1.635-.749Z" style="fill: #fff; fill-rule: evenodd; isolation: isolate; opacity: .483;"/>
    <path d="M852.873,146.854c.641-.048,1.231.157,1.771.613-.623-.079-1.214-.284-1.771-.613Z" style="fill: #fff; fill-rule: evenodd; isolation: isolate; opacity: .404;"/>
    <path d="M936.79,147.535c.173.079.173.169,0,.272-.131-.064-.131-.155,0-.272Z" style="fill: #fff; fill-rule: evenodd; isolation: isolate; opacity: .167;"/>
    <path d="M855.87,147.672c.737.373.691.464-.136.272.049-.093.095-.184.136-.272Z" style="fill: #fff; fill-rule: evenodd; isolation: isolate; opacity: .574;"/>
    <path d="M936.245,147.672c.319.037.319.151,0,.341-.136.091-.272.091-.409,0,.146-.116.282-.23.409-.341Z" style="fill: #fff; fill-rule: evenodd; isolation: isolate; opacity: .4;"/>
    <path d="M935.291,147.944c.16-.03.296.016.409.136-3.04,1.043-6.128,1.951-9.264,2.725-.091-.045-.182-.091-.272-.136,3.085-.805,6.128-1.713,9.127-2.725Z" style="fill: #fff; fill-rule: evenodd; isolation: isolate; opacity: .558;"/>
    <path d="M845.381,148.08c.298.001.411.138.341.409-.091-.182-.182-.182-.272,0-.066-.129-.088-.265-.068-.409Z" style="fill: #fff; fill-rule: evenodd; isolation: isolate; opacity: .34;"/>
    <path d="M846.471,148.353c-.341-.001-.363-.092-.068-.272.063.081.086.172.068.272Z" style="fill: #fff; fill-rule: evenodd; isolation: isolate; opacity: .167;"/>
    <path d="M846.471,148.353c.213-.003.417-.048.613-.136.525.175,1.047.357,1.567.545-.493.158-.993.181-1.499.068-.324-.03-.551-.189-.681-.477Z" style="fill: #fff; fill-rule: evenodd; isolation: isolate; opacity: .664;"/>
    <path d="M931.205,148.217c.187-.021.369.001.545.068-.155.101-.155.215,0,.341-.118.148-.254.17-.409.068l.136-.136c-.171-.057-.262-.17-.272-.341Z" style="fill: #fff; fill-rule: evenodd; isolation: isolate; opacity: .324;"/>
    <path d="M930.523,148.489c.119-.018.21.028.272.136-.314.187-.405.142-.272-.136Z" style="fill: #fff; fill-rule: evenodd; isolation: isolate; opacity: .176;"/>
    <path d="M850.966,148.762c.338.031.406.122.204.272-.14-.046-.208-.137-.204-.272Z" style="fill: #fff; fill-rule: evenodd; isolation: isolate; opacity: .301;"/>
    <path d="M928.616,148.898c.268.061.313.197.136.409-.275-.086-.321-.222-.136-.409Z" style="fill: #fff; fill-rule: evenodd; isolation: isolate; opacity: .367;"/>
    <path d="M929.161,148.898c.16-.03.296.016.409.136-.211.177-.348.131-.409-.136Z" style="fill: #fff; fill-rule: evenodd; isolation: isolate; opacity: .376;"/>
    <path d="M843.201,149.034c.165.136.142.272-.068.409-.064-.147-.041-.283.068-.409Z" style="fill: #fff; fill-rule: evenodd; isolation: isolate; opacity: .157;"/>
    <path d="M843.746,149.17c.341.001.363.092.068.272-.063-.081-.086-.172-.068-.272Z" style="fill: #fff; fill-rule: evenodd; isolation: isolate; opacity: .188;"/>
    <path d="M927.799,149.17c.173.079.173.169,0,.272-.131-.064-.131-.155,0-.272Z" style="fill: #fff; fill-rule: evenodd; isolation: isolate; opacity: .272;"/>
    <path d="M836.254,149.306h.409c-.102.519-.238.519-.409,0Z" style="fill: #fff; fill-rule: evenodd; isolation: isolate; opacity: .352;"/>
    <path d="M839.659,149.306c.148.016.239.107.272.272-.045.091-.091.182-.136.272-.127-.162-.172-.344-.136-.545Z" style="fill: #fff; fill-rule: evenodd; isolation: isolate; opacity: .329;"/>
    <path d="M851.375,149.306c.519.171.519.307,0,.409v-.409Z" style="fill: #fff; fill-rule: evenodd; isolation: isolate; opacity: .501;"/>
    <path d="M852.192,149.443c.14.054.162.145.068.272-.063-.081-.086-.172-.068-.272Z" style="fill: #fff; fill-rule: evenodd; isolation: isolate; opacity: .533;"/>
    <path d="M846.198,149.715c.054-.14.145-.162.272-.068-.081.063-.172.086-.272.068Z" style="fill: #fff; fill-rule: evenodd; isolation: isolate; opacity: .188;"/>
    <path d="M925.619,149.579c1.4.036,1.423.172.068.409-.229-.092-.252-.228-.068-.409Z" style="fill: #fff; fill-rule: evenodd; isolation: isolate; opacity: .479;"/>
    <path d="M840.477,149.715c.25.087.295.223.136.409-.121-.112-.166-.249-.136-.409Z" style="fill: #fff; fill-rule: evenodd; isolation: isolate; opacity: .314;"/>
    <path d="M842.929,149.715c.25.019.296.11.136.272-.109-.062-.154-.153-.136-.272Z" style="fill: #fff; fill-rule: evenodd; isolation: isolate; opacity: .408;"/>
    <path d="M854.236,149.851c.079-.173.169-.173.272,0-.064.131-.155.131-.272,0Z" style="fill: #fff; fill-rule: evenodd; isolation: isolate; opacity: .293;"/>
    <path d="M846.062,149.988c.054-.14.145-.162.272-.068-.081.063-.172.086-.272.068Z" style="fill: #fff; fill-rule: evenodd; isolation: isolate; opacity: .157;"/>
    <path d="M855.053,149.851c.14.054.162.145.068.272-.063-.081-.086-.172-.068-.272Z" style="fill: #fff; fill-rule: evenodd; isolation: isolate; opacity: .188;"/>
    <path d="M855.462,149.988c.749.348.704.461-.136.341.102-.091.148-.205.136-.341Z" style="fill: #fff; fill-rule: evenodd; isolation: isolate; opacity: .439;"/>
    <path d="M837.071,150.124h.409c.005.253-.108.435-.341.545-.241-.161-.264-.343-.068-.545Z" style="fill: #fff; fill-rule: evenodd; isolation: isolate; opacity: .538;"/>
    <path d="M837.888,150.26c.17.01.284.101.341.272.268-.189.517-.166.749.068-.276.407-.571.43-.885.068-.056.062-.125.108-.204.136-.153-.178-.153-.36,0-.545Z" style="fill: #fff; fill-rule: evenodd; isolation: isolate; opacity: .599;"/>
    <path d="M840.885,150.396c.079-.173.169-.173.272,0-.064.131-.155.131-.272,0Z" style="fill: #fff; fill-rule: evenodd; isolation: isolate; opacity: .293;"/>
    <path d="M853.827,150.26c.519.171.519.307,0,.409v-.409Z" style="fill: #fff; fill-rule: evenodd; isolation: isolate; opacity: .407;"/>
    <path d="M856.279,150.396c.054-.14.145-.162.272-.068-.081.063-.172.086-.272.068Z" style="fill: #fff; fill-rule: evenodd; isolation: isolate; opacity: .157;"/>
    <path d="M860.093,150.26c.268.061.313.197.136.409-.121-.112-.166-.249-.136-.409Z" style="fill: #fff; fill-rule: evenodd; isolation: isolate; opacity: .335;"/>
    <path d="M924.938,150.805c.516-.067.607.046.272.341-2.3.471-4.616.789-6.948.954,2.232-.49,4.457-.921,6.675-1.294Z" style="fill: #fff; fill-rule: evenodd; isolation: isolate; opacity: .611;"/>
    <path d="M840.204,151.077c.25.019.296.11.136.272-.109-.062-.154-.153-.136-.272Z" style="fill: #fff; fill-rule: evenodd; isolation: isolate; opacity: .424;"/>
    <path d="M843.065,151.214c.176-.09.38-.135.613-.136.447.031.879.122,1.294.272v.545c-.5-.091-.999-.182-1.499-.272v-.409h-.409Z" style="fill: #fff; fill-rule: evenodd; isolation: isolate; opacity: .7;"/>
    <path d="M845.653,151.35c-.118.131-.208.131-.272,0,.103-.173.194-.173.272,0Z" style="fill: #fff; fill-rule: evenodd; isolation: isolate; opacity: .125;"/>
    <path d="M845.653,151.35c.118-.131.208-.131.272,0-.103.173-.194.173-.272,0Z" style="fill: #fff; fill-rule: evenodd; isolation: isolate; opacity: .188;"/>
    <path d="M862.273,151.35c.079-.173.169-.173.272,0-.064.131-.155.131-.272,0Z" style="fill: #fff; fill-rule: evenodd; isolation: isolate; opacity: .188;"/>
    <path d="M862.818,151.214c.217.017.398.108.545.272-.318.196-.499.106-.545-.272Z" style="fill: #fff; fill-rule: evenodd; isolation: isolate; opacity: .46;"/>
    <path d="M919.216,151.35c.173.079.173.169,0,.272-.131-.064-.131-.155,0-.272Z" style="fill: #fff; fill-rule: evenodd; isolation: isolate; opacity: .356;"/>
    <path d="M915.402,151.486c.308.101.331.237.068.409-.066-.129-.088-.265-.068-.409Z" style="fill: #fff; fill-rule: evenodd; isolation: isolate; opacity: .329;"/>
    <path d="M847.561,151.759c.079-.173.169-.173.272,0-.064.131-.155.131-.272,0Z" style="fill: #fff; fill-rule: evenodd; isolation: isolate; opacity: .314;"/>
    <path d="M917.446,151.622c.25.019.296.11.136.272-.109-.062-.154-.153-.136-.272Z" style="fill: #fff; fill-rule: evenodd; isolation: isolate; opacity: .345;"/>
    <path d="M868.948,151.895c.201-.036.383.01.545.136-.091.045-.182.091-.272.136-.165-.034-.256-.125-.272-.272Z" style="fill: #fff; fill-rule: evenodd; isolation: isolate; opacity: .65;"/>
    <path d="M870.038,152.031c.447.03.879.121,1.294.272.449-.11.881-.042,1.294.204-.967.027-1.92-.064-2.861-.272.125-.038.216-.106.272-.204Z" style="fill: #fff; fill-rule: evenodd; isolation: isolate; opacity: .631;"/>
    <path d="M911.043,152.031c.173.079.173.169,0,.272-.131-.064-.131-.155,0-.272Z" style="fill: #fff; fill-rule: evenodd; isolation: isolate; opacity: .23;"/>
    <path d="M911.315,152.031c.374-.043.738.003,1.09.136-.182.045-.363.091-.545.136-.25-.012-.431-.102-.545-.272Z" style="fill: #fff; fill-rule: evenodd; isolation: isolate; opacity: .752;"/>
    <path d="M917.854,152.031c.074.008.119.054.136.136-.118.148-.254.17-.409.068.125-.038.216-.106.272-.204Z" style="fill: #fff; fill-rule: evenodd; isolation: isolate; opacity: .235;"/>
    <path d="M873.853,152.303c.032-.081.1-.127.204-.136.426.096.857.164,1.294.204-.512.103-1.011.08-1.499-.068Z" style="fill: #fff; fill-rule: evenodd; isolation: isolate; opacity: .487;"/>
    <path d="M917.309,152.167c.173.079.173.169,0,.272-.131-.064-.131-.155,0-.272Z" style="fill: #fff; fill-rule: evenodd; isolation: isolate; opacity: .125;"/>
    <path d="M875.623,152.44c.15-.15.332-.172.545-.068-.145.206-.327.228-.545.068Z" style="fill: #fff; fill-rule: evenodd; isolation: isolate; opacity: .364;"/>
    <path d="M850.285,152.44c.177.184.154.365-.068.545-.216-.183-.193-.365.068-.545Z" style="fill: #fff; fill-rule: evenodd; isolation: isolate; opacity: .403;"/>
    <path d="M894.014,152.44c.218-.026.4.043.545.204-.267.115-.449.047-.545-.204Z" style="fill: #fff; fill-rule: evenodd; isolation: isolate; opacity: .368;"/>
    <path d="M894.832,152.44c.463-.044.917.002,1.362.136-.396.067-.782.112-1.158.136-.321.024-.389-.067-.204-.272Z" style="fill: #fff; fill-rule: evenodd; isolation: isolate; opacity: .386;"/>
    <path d="M906.002,152.44c.25.019.296.11.136.272-.109-.062-.154-.153-.136-.272Z" style="fill: #fff; fill-rule: evenodd; isolation: isolate; opacity: .22;"/>
    <path d="M911.179,152.576c.079-.173.169-.173.272,0-.064.131-.155.131-.272,0Z" style="fill: #fff; fill-rule: evenodd; isolation: isolate; opacity: .314;"/>
    <path d="M872.899,152.712c.29-.154.608-.177.954-.068-.295.235-.613.257-.954.068Z" style="fill: #fff; fill-rule: evenodd; isolation: isolate; opacity: .491;"/>
    <path d="M880.664,152.576c.432-.013.841.077,1.226.272-.355.157-.718.18-1.09.068-.102-.091-.148-.205-.136-.341Z" style="fill: #fff; fill-rule: evenodd; isolation: isolate; opacity: .544;"/>
    <path d="M885.023,152.848c-.648.199-.693.108-.136-.272.109.062.154.153.136.272Z" style="fill: #fff; fill-rule: evenodd; isolation: isolate; opacity: .269;"/>
    <path d="M886.93,152.712c.008-.074.054-.119.136-.136.148.118.17.254.068.409-.038-.125-.106-.216-.204-.272Z" style="fill: #fff; fill-rule: evenodd; isolation: isolate; opacity: .204;"/>
    <path d="M904.095,152.576c.632.015.677.151.136.409-.121-.112-.166-.249-.136-.409Z" style="fill: #fff; fill-rule: evenodd; isolation: isolate; opacity: .326;"/>
    <path d="M911.588,152.576c.25.019.296.11.136.272-.109-.062-.154-.153-.136-.272Z" style="fill: #fff; fill-rule: evenodd; isolation: isolate; opacity: .22;"/>
    <path d="M885.023,152.848c.169-.124.35-.147.545-.068-.18.222-.361.245-.545.068Z" style="fill: #fff; fill-rule: evenodd; isolation: isolate; opacity: .387;"/>
    <path d="M898.918,152.712c.107.039.198.107.272.204-.179.072-.27.004-.272-.204Z" style="fill: #fff; fill-rule: evenodd; isolation: isolate; opacity: .23;"/>
    <path d="M905.321,152.848c.15-.15.332-.172.545-.068-.176.067-.358.089-.545.068Z" style="fill: #fff; fill-rule: evenodd; isolation: isolate; opacity: .408;"/>
    <path d="M879.165,152.848c.231-.022.459,0,.681.068-.284.291-.511.269-.681-.068Z" style="fill: #fff; fill-rule: evenodd; isolation: isolate; opacity: .41;"/>
    <path d="M891.971,153.121c-.123.314-.305.314-.545,0,.186-.358.368-.358.545,0Z" style="fill: #fff; fill-rule: evenodd; isolation: isolate; opacity: .26;"/>
    <path d="M891.971,153.121c.061-.268.197-.313.409-.136-.112.121-.249.166-.409.136Z" style="fill: #fff; fill-rule: evenodd; isolation: isolate; opacity: .199;"/>
    <path d="M892.516,152.848c.107.039.198.107.272.204-.179.072-.27.004-.272-.204Z" style="fill: #fff; fill-rule: evenodd; isolation: isolate; opacity: .356;"/>
    <path d="M894.968,152.848c.449-.023.495.067.136.272-.109-.062-.154-.153-.136-.272Z" style="fill: #fff; fill-rule: evenodd; isolation: isolate; opacity: .326;"/>
    <path d="M898.374,152.848c.173.079.173.169,0,.272-.131-.064-.131-.155,0-.272Z" style="fill: #fff; fill-rule: evenodd; isolation: isolate; opacity: .314;"/>
    <path d="M899.736,152.848c.25.019.296.11.136.272-.109-.062-.154-.153-.136-.272Z" style="fill: #fff; fill-rule: evenodd; isolation: isolate; opacity: .282;"/>
    <path d="M906.002,152.848c.201-.036.383.01.545.136-.091.045-.182.091-.272.136-.165-.034-.256-.125-.272-.272Z" style="fill: #fff; fill-rule: evenodd; isolation: isolate; opacity: .376;"/>
    <path d="M884.615,153.121c.25.019.296.11.136.272-.109-.062-.154-.153-.136-.272Z" style="fill: #fff; fill-rule: evenodd; isolation: isolate; opacity: .157;"/>
    <path d="M899.055,153.257c.16-.03.296.016.409.136-.211.177-.348.131-.409-.136Z" style="fill: #fff; fill-rule: evenodd; isolation: isolate; opacity: .324;"/>
    <path d="M897.148,153.53c.102-.146.239-.169.409-.068-.129.066-.265.088-.409.068Z" style="fill: #fff; fill-rule: evenodd; isolation: isolate; opacity: .272;"/>
    <path d="M894.014,153.666c.121-.174.257-.174.409,0-.1.08-.236.08-.409,0Z" style="fill: #fff; fill-rule: evenodd; isolation: isolate; opacity: .157;"/>
    <path d="M898.374,153.53c.25.019.296.11.136.272-.109-.062-.154-.153-.136-.272Z" style="fill: #fff; fill-rule: evenodd; isolation: isolate; opacity: .188;"/>
    <path d="M885.296,153.666c.341.001.363.092.068.272-.063-.081-.086-.172-.068-.272Z" style="fill: #fff; fill-rule: evenodd; isolation: isolate; opacity: .376;"/>
    <path d="M892.107,153.802c.25.019.296.11.136.272-.109-.062-.154-.153-.136-.272Z" style="fill: #fff; fill-rule: evenodd; isolation: isolate; opacity: .345;"/>
    <path d="M898.782,153.802c.341.001.363.092.068.272-.063-.081-.086-.172-.068-.272Z" style="fill: #fff; fill-rule: evenodd; isolation: isolate; opacity: .272;"/>
    <path d="M895.785,153.938c.557-.038.625.052.204.272-.14-.046-.208-.137-.204-.272Z" style="fill: #fff; fill-rule: evenodd; isolation: isolate; opacity: .35;"/>
  </g>
</svg>